<svg width="82" height="17" fill="none" xmlns="http://www.w3.org/2000/svg"><path d="M3.757.355l5.37 8.198V.355h4.24v15.467H9.612l-5.37-8.22v8.22H0V.355h3.757zM33.08 8.088c0 4.464-3.845 8.066-8.308 8.066-4.463 0-8.33-3.605-8.33-8.066 0-4.46 3.866-8.088 8.33-8.088 4.463 0 8.308 3.625 8.308 8.088zm-4.064 0a4.242 4.242 0 00-8.485 0c0 2.342 1.9 4.221 4.24 4.221 2.342 0 4.245-1.88 4.245-4.22zm19.532-4.156h-4.53V15.82h-4.222V3.932h-4.53V.355h13.28v3.577h.002zm11.249 9.15h-4.905l-.95 2.74h-4.706L55.07.355h4.53l5.857 15.467H60.75l-.953-2.74zm-1.26-3.58l-1.193-3.403-1.194 3.403h2.387zm22.473 1.725c0 2.696-1.79 4.595-5.876 4.595h-6.563V.355h6.319c3.337 0 5.125 1.703 5.125 4.264 0 .884-.355 2.164-1.436 2.96 1.79.707 2.432 2.232 2.432 3.648zm-8.22-7.295v2.122h2.122c.951 0 1.393-.464 1.393-1.06 0-.597-.442-1.062-1.393-1.062H72.79zm4.421 7.005c0-.729-.596-1.303-1.68-1.303h-2.74v2.606h2.74c1.084.003 1.68-.594 1.68-1.303z" fill="#fff"/></svg>