<svg width="26" height="25" fill="none" xmlns="http://www.w3.org/2000/svg"><path d="M13.002 0C5.822 0 0 5.594 0 12.495 0 19.396 5.821 24.99 13.002 24.99a13.61 13.61 0 002.244-.188l.136-.023c6.602-1.185 11.18-7.006 10.562-13.433C25.327 4.92 19.718.002 13.002 0zm-1.045 24.113h-.03a12.456 12.456 0 01-1.004-.127l-.056-.009a12.51 12.51 0 01-.963-.206l-.077-.018c-.31-.081-.616-.175-.918-.28l-.094-.03a12.164 12.164 0 01-.873-.349l-.107-.046a11.13 11.13 0 01-.94-.476 11.988 11.988 0 01-.781-.478l-.116-.076c-.25-.17-.494-.352-.732-.542l-.065-.055V17.91c.003-2.53 2.135-4.579 4.767-4.582h6.067c2.632.003 4.765 2.053 4.768 4.582v3.512l-.058.046c-.242.194-.49.378-.746.552l-.102.067c-.258.172-.522.334-.792.486l-.102.055a11.9 11.9 0 01-1.816.812l-.087.03c-.303.104-.61.199-.922.28l-.075.018c-.318.08-.64.15-.964.206l-.056.009a12.54 12.54 0 01-1.004.127h-.03a12.629 12.629 0 01-2.092.003zm9.713-3.463v-2.74c-.004-2.99-2.524-5.411-5.635-5.415H9.968c-3.11.004-5.63 2.426-5.634 5.415v2.74C-.334 16.07-.282 8.73 4.45 4.212c4.732-4.517 12.371-4.517 17.103 0 4.732 4.517 4.784 11.858.117 16.436z" fill="#fff"/><path d="M13.002 3.332c-2.394 0-4.334 1.865-4.334 4.165s1.94 4.165 4.334 4.165c2.393 0 4.334-1.865 4.334-4.165-.003-2.3-1.942-4.163-4.334-4.165zm0 7.497c-1.915 0-3.467-1.492-3.467-3.332 0-1.84 1.552-3.332 3.467-3.332s3.467 1.492 3.467 3.332c-.002 1.84-1.554 3.33-3.467 3.332z" fill="#fff"/></svg>