<svg width="338" height="159" fill="none" xmlns="http://www.w3.org/2000/svg"><path d="M.7 155H-.761v1.461H.7V155zM.7 3.8V2.339H-.761V3.8H.7zm25.62 0l1.22-.803-.432-.658h-.788V3.8zm70.14 106.575l-1.22.803 2.681 4.076v-4.879H96.46zm0-106.575V2.339h-1.461V3.8h1.461zm25.62 0h1.461V2.339h-1.461V3.8zm0 151.2v1.461h1.461V155h-1.461zm-25.62 0l-1.22.803.432.658h.788V155zM26.32 48.425l1.22-.803-2.681-4.076v4.879h1.461zm0 106.575v1.461h1.462V155H26.32zm-24.159 0V3.8H-.76V155h2.92zM.7 5.261h25.62V2.34H.7v2.92zm24.4-.658l70.14 106.575 2.44-1.606L27.54 2.997 25.1 4.603zm72.822 105.772V3.8h-2.923v106.575h2.922zM96.46 5.261h25.62V2.34H96.46v2.92zM120.619 3.8V155h2.922V3.8h-2.922zm1.461 149.739H96.46v2.922h25.62v-2.922zm-24.4.658L27.54 47.622l-2.44 1.606 70.14 106.575 2.44-1.606zM24.859 48.425V155h2.924V48.425h-2.924zm1.462 105.114H.7v2.922h25.62v-2.922zm150.207-5.259l-.767 1.244.006.003.761-1.247zm-24.885-27.72l-1.314.638.003.006 1.311-.644zm0-82.32l-1.311-.644-.003.006 1.314.638zm24.885-27.615l.762 1.247.006-.003-.768-1.244zm77.7 0l-.767 1.244.01.006.757-1.25zm24.885 27.615l-1.314.638.003.006 1.311-.644zm0 82.32l-1.311-.644-.003.006 1.314.638zm-24.885 27.72l.762 1.247.002-.001-.764-1.246zm-38.85-13.965l-.02 1.461h.01l.01-1.461zm25.305-6.72l-.813-1.214-.006.004.819 1.21zm15.225-19.215l-1.349-.56-.004.009 1.353.551zm0-57.75l-1.352.555.003.007.003.007 1.346-.569zm-15.225-19.11l-.819 1.21.006.004.813-1.214zm-25.305-7.035l.021-1.461h-.01l-.011 1.461zm-25.305 6.72l.82 1.21-.82-1.21zM174.847 50.42l-1.349-.56-.004.01 1.353.55zm0 57.855l-1.352.555.002.004 1.35-.559zm15.12 19.005l-.819 1.21.006.004.813-1.214zm25.41 29.409c-14.904 0-27.579-3.242-38.088-9.656l-1.523 2.494c11.051 6.746 24.276 10.084 39.611 10.084v-2.922zm-38.082-9.653c-10.536-6.499-18.647-15.527-24.341-27.12l-2.623 1.288c5.926 12.067 14.405 21.519 25.429 28.32l1.535-2.488zm-24.338-27.114c-5.627-11.597-8.463-25.092-8.463-40.522h-2.923c0 15.79 2.904 29.735 8.757 41.798l2.629-1.276zM144.494 79.4c0-15.43 2.836-28.925 8.463-40.522l-2.629-1.276c-5.853 12.063-8.757 26.008-8.757 41.798h2.923zm8.46-40.516c5.693-11.592 13.803-20.583 24.335-27.012l-1.523-2.494c-11.028 6.73-19.509 16.15-25.435 28.218l2.623 1.288zm24.341-27.015c10.508-6.482 23.18-9.758 38.082-9.758V-.81c-15.338 0-28.565 3.374-39.617 10.192l1.535 2.488zm38.082-9.758c14.902 0 27.575 3.276 38.083 9.758l1.535-2.488C243.943 2.563 230.715-.81 215.377-.81v2.92zm38.093 9.764c10.6 6.428 18.706 15.417 24.328 27.003l2.629-1.276c-5.858-12.074-14.342-21.495-25.442-28.227l-1.515 2.5zm24.331 27.01c5.695 11.595 8.565 25.087 8.565 40.515h2.923c0-15.793-2.94-29.74-8.865-41.804l-2.623 1.288zm8.565 40.515c0 15.427-2.87 28.92-8.565 40.516l2.623 1.288c5.925-12.064 8.865-26.011 8.865-41.804h-2.923zm-8.568 40.522c-5.623 11.588-13.731 20.613-24.334 27.112l1.527 2.492c11.096-6.801 19.579-16.256 25.436-28.328l-2.629-1.276zm-24.332 27.111c-10.509 6.414-23.184 9.656-38.089 9.656v2.922c15.336 0 28.561-3.338 39.612-10.084l-1.523-2.494zm-38.099-11.257c10.371.072 19.115-2.218 26.135-6.971l-1.639-2.42c-6.42 4.347-14.547 6.537-24.475 6.469l-.021 2.922zm26.129-6.967c7.054-4.727 12.306-11.374 15.765-19.878l-2.707-1.102c-3.261 8.016-8.159 14.179-14.685 18.552l1.627 2.428zm15.761-19.869c3.519-8.474 5.257-18.332 5.257-29.54h-2.923c0 10.912-1.692 20.374-5.033 28.42l2.699 1.12zm5.257-29.54c0-11.207-1.738-21-5.26-29.339l-2.693 1.138c3.337 7.9 5.03 17.288 5.03 28.201h2.923zm-5.254-29.325c-3.461-8.435-8.713-15.044-15.764-19.77l-1.627 2.43c6.529 4.374 11.427 10.505 14.686 18.45l2.705-1.11zM241.502 30.31c-7.009-4.746-15.741-7.143-26.104-7.286l-.041 2.922c9.937.137 18.075 2.43 24.506 6.784l1.639-2.42zm-26.114-7.286c-10.372-.072-19.115 2.218-26.135 6.97l1.639 2.421c6.42-4.347 14.546-6.537 24.475-6.469l.021-2.922zm-26.135 6.97c-6.98 4.727-12.227 11.37-15.755 19.865l2.699 1.121c3.332-8.024 8.235-14.191 14.695-18.565l-1.639-2.42zM173.494 49.87c-3.446 8.472-5.148 18.326-5.148 29.531h2.923c0-10.915 1.658-20.38 4.932-28.43l-2.707-1.1zm-5.148 29.53c0 11.204 1.702 21.026 5.149 29.43l2.705-1.11c-3.273-7.976-4.931-17.404-4.931-28.32h-2.923zm5.151 29.434c3.46 8.361 8.674 14.932 15.651 19.656l1.639-2.42c-6.464-4.376-11.329-10.475-14.589-18.354l-2.701 1.118zm15.657 19.66c7.076 4.742 15.839 7.139 26.203 7.282l.041-2.922c-9.936-.137-18.113-2.43-24.617-6.788l-1.627 2.428zM340.956 155h-1.462v1.461h1.462V155zm0-127.47h1.461v-1.462h-1.461v1.462zm-48.93 0h-1.462v1.461h1.462V27.53zm0-23.73V2.339h-1.462V3.8h1.462zm123.165 0h1.461V2.339h-1.461V3.8zm0 23.73v1.461h1.461V27.53h-1.461zm-48.93 0v-1.462h-1.462v1.462h1.462zm0 127.47v1.461h1.461V155h-1.461zm-23.844 0V27.53h-2.923V155h2.923zm-1.461-128.931h-48.93v2.922h48.93V26.07zm-47.469 1.461V3.8h-2.923v23.73h2.923zm-1.461-22.269h123.165V2.34H292.026v2.92zM413.729 3.8v23.73h2.923V3.8h-2.923zm1.462 22.268h-48.93v2.923h48.93V26.07zm-50.392 1.462V155h2.923V27.53h-2.923zm1.462 126.009h-25.305v2.922h25.305v-2.922zM417.378 155l-1.394-.439-.599 1.9h1.993V155zm47.67-151.2V2.339h-1.072l-.322 1.022 1.394.439zm37.065 0l1.394-.44-.323-1.021h-1.071V3.8zm47.67 151.2v1.461h1.993l-.599-1.9-1.394.439zm-26.04 0l-1.393.444.325 1.017h1.068V155zm-43.26-135.66v-1.462h-2l.607 1.906 1.393-.444zm5.67 0l1.394.44.598-1.902h-1.992v1.462zM443.418 155v1.461h1.072l.322-1.022-1.394-.439zm.525-32.76h-1.462v1.461h1.462v-1.461zm0-23.625v-1.462h-1.462v1.462h1.462zm79.38 0h1.461v-1.462h-1.461v1.462zm0 23.625v1.461h1.461v-1.461h-1.461zm-104.551 33.199l47.67-151.2-2.788-.878-47.67 151.2 2.788.878zM465.048 5.261h37.065V2.34h-37.065v2.92zm35.671-1.022l47.67 151.2 2.788-.878-47.67-151.2-2.788.878zm49.064 149.3h-26.04v2.922h26.04v-2.922zm-24.648 1.017l-43.26-135.66-2.785.888 43.26 135.66 2.785-.888zM480.483 20.801h5.67V17.88h-5.67v2.92zm4.276-1.9l-42.735 135.66 2.788.878 42.735-135.66-2.788-.878zm-41.341 134.638h-26.04v2.922h26.04v-2.922zm1.986-31.299V98.615h-2.923v23.625h2.923zm-1.461-22.164h79.38v-2.922h-79.38v2.922zm77.918-1.461v23.625h2.923V98.615h-2.923zm1.462 22.164h-79.38v2.922h79.38v-2.922zM568.766 155h-1.461v1.461h1.461V155zm0-151.2V2.339h-1.461V3.8h1.461zm85.05 6.195l-.782 1.234.007.005.008.005.767-1.244zm14.595 15.645l-1.31.648.006.011 1.304-.659zm-1.155 40.95l-1.204-.827-.007.01 1.211.817zm-16.065 11.76h-1.461v1.962l1.88-.562-.419-1.4zm0-5.25l.325-1.425-1.786-.407V73.1h1.461zm21.63 13.545l-1.189.85.006.007 1.183-.857zm2.31 46.935l-1.301-.664 1.301.664zm-15.33 15.75l-.71-1.277-.006.003.716 1.274zm-65.415-18.165h-1.461v1.461h1.461v-1.461zm49.14-2.625l.654 1.307.01-.005.011-.005-.675-1.297zm8.19-7.56l-1.243-.767-.005.007 1.248.76zm.42-22.575l-1.284.698 1.284-.698zm-7.665-7.665l-.736 1.262.01.006.01.006.716-1.274zm-50.085-2.94v-1.462h-1.461V87.8h1.461zm0-23.625h-1.461v1.461h1.461v-1.461zm50.61-8.295l-1.244-.766 1.244.766zm-2.52-23.205l1.055-1.012-1.055 1.012zm-48.09-5.25v-1.462h-1.461v1.462h1.461zM570.228 155V3.8h-2.923V155h2.923zM568.766 5.261h59.955V2.34h-59.955v2.92zm59.955 0c10.031 0 18.101 2.028 24.313 5.968l1.565-2.468c-6.809-4.32-15.469-6.422-25.878-6.422V5.26zm24.328 5.978c6.368 3.929 11.034 8.946 14.052 15.049l2.62-1.296c-3.282-6.637-8.345-12.05-15.137-16.24l-1.535 2.487zm14.058 15.06c3.122 6.177 4.673 12.532 4.673 19.081h2.923c0-7.03-1.669-13.836-4.987-20.4l-2.609 1.32zm4.673 19.081c0 8.09-1.934 14.858-5.728 20.383l2.409 1.654c4.186-6.095 6.242-13.467 6.242-22.037h-2.923zm-5.735 20.393c-3.729 5.526-8.802 9.242-15.272 11.177l.837 2.8c7.11-2.125 12.747-6.25 16.858-12.343l-2.423-1.634zM652.653 78.35V73.1h-2.923v5.25h2.923zm-1.786-3.825c9.229 2.104 16.106 6.446 20.765 12.97l2.379-1.7c-5.141-7.196-12.685-11.884-22.495-14.12l-.649 2.85zm20.771 12.977c4.783 6.602 7.177 14.105 7.177 22.558h2.923c0-9.047-2.576-17.154-7.733-24.272l-2.367 1.714zm7.177 22.558c0 8.772-1.678 16.377-4.985 22.856l2.603 1.328c3.553-6.961 5.305-15.036 5.305-24.184h-2.923zm-4.985 22.856c-3.294 6.453-8.195 11.494-14.739 15.137l1.421 2.554c7.036-3.917 12.355-9.376 15.921-16.363l-2.603-1.328zm-14.745 15.14c-6.447 3.627-14.514 5.483-24.274 5.483v2.922c10.121 0 18.714-1.924 25.707-5.857l-1.433-2.548zm-24.274 5.483h-66.045v2.922h66.045v-2.922zm-40.425-20.913h37.275v-2.922h-37.275v2.922zm37.275 0c4.608 0 8.792-.915 12.519-2.779l-1.307-2.614c-3.273 1.636-6.999 2.471-11.212 2.471v2.922zm12.54-2.789c3.725-1.938 6.658-4.638 8.764-8.097l-2.497-1.52c-1.815 2.981-4.341 5.321-7.616 7.023l1.349 2.594zm8.759-8.09c2.194-3.555 3.263-7.715 3.263-12.422H653.3c0 4.253-.961 7.863-2.827 10.888l2.487 1.534zm3.263-12.422c0-4.277-.924-8.161-2.803-11.618l-2.568 1.396c1.622 2.983 2.448 6.379 2.448 10.222h2.923zm-2.803-11.618c-1.888-3.474-4.646-6.223-8.232-8.24l-1.433 2.547c3.133 1.762 5.486 4.123 7.097 7.089l2.568-1.396zm-8.212-8.23c-3.626-2.114-7.916-3.139-12.812-3.139v2.923c4.485 0 8.244.936 11.339 2.741l1.473-2.524zm-12.812-3.139h-38.01v2.923h38.01V86.34zM592.925 87.8v43.365h2.923V87.8h-2.923zm1.461-22.164h34.02v-2.922h-34.02v2.922zm34.02 0c3.831 0 7.31-.737 10.406-2.247l-1.281-2.628c-2.645 1.29-5.675 1.953-9.125 1.953v2.922zm10.406-2.247c3.12-1.523 5.604-3.778 7.429-6.743l-2.489-1.532c-1.536 2.495-3.602 4.37-6.221 5.648l1.281 2.627zm7.429-6.743c1.853-3.01 2.737-6.651 2.737-10.846h-2.923c0 3.785-.796 6.865-2.303 9.314l2.489 1.532zm2.737-10.846c0-5.593-1.803-10.341-5.447-14.137l-2.109 2.024c3.076 3.204 4.633 7.206 4.633 12.113h2.923zm-5.447-14.137c-3.699-3.853-8.809-5.7-15.125-5.7v2.923c5.725 0 9.995 1.654 13.016 4.801l2.109-2.024zm-15.125-5.7h-34.02v2.923h34.02v-2.922zm-35.481 1.462v36.75h2.923v-36.75h-2.923z" fill="#8B8B8B"/></svg>