<svg width="195" height="118" fill="none" xmlns="http://www.w3.org/2000/svg"><rect x=".68" y=".369" width="193.846" height="117.605" rx="14.795" fill="#000"/><rect x=".988" y=".677" width="193.229" height="116.989" rx="14.487" stroke="#fff" stroke-opacity=".5" stroke-width=".616"/><path d="M28.597 27.946h-2.936v56.15h2.936v-56.15zm6.505 0h-2.936v56.15h2.936v-56.15zm13.001 0h-2.936v56.15h2.936v-56.15zm6.497 0h-2.936v56.15H54.6v-56.15zm13.001 0h-2.936v56.15h2.936v-56.15zm6.505 0H71.17v56.15h2.936v-56.15zm13.002 0h-2.936v56.15h2.936v-56.15zm6.496 0h-2.936v56.15h2.936v-56.15zm13.002 0h-2.936v56.15h2.936v-56.15zm6.496 0h-2.936v56.15h2.936v-56.15zm13.002 0h-2.936v56.15h2.936v-56.15zm6.505 0h-2.936v56.15h2.936v-56.15zm13.001 0h-2.936v56.15h2.936v-56.15zm6.497 0h-2.936v56.15h2.936v-56.15zm13.001 0h-2.936v56.15h2.936v-56.15zm6.505 0h-2.936v56.15h2.936v-56.15z" fill="#406EB2"/><path d="M28.597 49.106h-2.936v34.998h2.936V49.106z" fill="url(#paint0_linear_479_2677)"/><path d="M35.102 63.276h-2.936v20.82h2.936v-20.82z" fill="url(#paint1_linear_479_2677)"/><path d="M48.103 59.431h-2.936v24.665h2.936V59.43z" fill="url(#paint2_linear_479_2677)"/><path d="M54.6 52.708h-2.936v31.388H54.6V52.707z" fill="url(#paint3_linear_479_2677)"/><path d="M67.601 56.074h-2.936v28.03h2.936v-28.03z" fill="url(#paint4_linear_479_2677)"/><path d="M74.106 63.916H71.17v20.18h2.936v-20.18z" fill="url(#paint5_linear_479_2677)"/><path d="M87.108 61.84h-2.936v22.264h2.936V61.84z" fill="url(#paint6_linear_479_2677)"/><path d="M93.604 54.468h-2.936v29.628h2.936V54.467z" fill="url(#paint7_linear_479_2677)"/><path d="M106.606 46.706h-2.936v37.398h2.936V46.706z" fill="url(#paint8_linear_479_2677)"/><path d="M113.102 60.713h-2.936v23.383h2.936V60.713z" fill="url(#paint9_linear_479_2677)"/><path d="M126.104 49.585h-2.936v34.511h2.936V49.585z" fill="url(#paint10_linear_479_2677)"/><path d="M132.609 67.923h-2.936v16.173h2.936V67.923z" fill="url(#paint11_linear_479_2677)"/><path d="M145.61 59.196h-2.936v24.908h2.936V59.196z" fill="url(#paint12_linear_479_2677)"/><path d="M152.107 54.468h-2.936v29.628h2.936V54.467z" fill="url(#paint13_linear_479_2677)"/><path d="M165.108 48.141h-2.936v35.955h2.936V48.14z" fill="url(#paint14_linear_479_2677)"/><path d="M171.613 57.274h-2.936v26.83h2.936v-26.83z" fill="url(#paint15_linear_479_2677)"/><path d="M175.052 84.461H20.146V27.962h.592V83.87h154.314v.592z" fill="#fff"/><path d="M25.186 88.57v-2.5h.706c.218 0 .41.047.578.144a.97.97 0 01.386.41c.092.178.138.381.14.612v.16c0 .235-.047.442-.138.62a.955.955 0 01-.39.408 1.205 1.205 0 01-.59.146h-.692zm.33-2.23v1.96h.347c.255 0 .452-.079.593-.237.142-.158.213-.383.213-.675v-.146c0-.284-.067-.504-.201-.66-.133-.159-.322-.24-.567-.241h-.385zm3.322 1.577H27.79l-.235.653h-.34l.955-2.5h.289l.956 2.5h-.338l-.239-.653zm-.948-.271h.85l-.426-1.17-.424 1.17zm3.367-1.305h-.804v2.23h-.328v-2.23h-.802v-.272h1.934v.272zm1.614 1.576h-1.048l-.235.653h-.34l.955-2.5h.289l.956 2.5h-.338l-.239-.653zm-.948-.271h.85l-.426-1.17-.424 1.17zm4.22-.143c0 .373-.063.65-.19.83-.128.181-.326.271-.596.271-.267 0-.465-.088-.593-.264-.128-.178-.195-.442-.2-.794v-.424c0-.368.064-.64.191-.82.127-.178.327-.267.598-.267.27 0 .467.086.594.26.127.171.193.437.196.796v.412zm-.318-.434c0-.27-.037-.465-.113-.588-.076-.123-.195-.185-.359-.185-.163 0-.281.061-.355.184-.075.122-.113.31-.115.565v.508c0 .27.038.47.116.6a.392.392 0 00.358.192c.157 0 .273-.06.348-.182.077-.121.117-.313.12-.574v-.52zm1.77 1.501h-.32v-2.118l-.64.236v-.289l.91-.342h.05v2.513zm6.333 0v-2.5h.706c.218 0 .41.047.578.144a.97.97 0 01.386.41c.092.178.138.381.14.612v.16c0 .235-.047.442-.138.62a.954.954 0 01-.39.408 1.204 1.204 0 01-.59.146h-.691zm.33-2.23v1.96h.347c.254 0 .452-.079.593-.237.142-.158.213-.383.213-.675v-.146c0-.284-.067-.504-.201-.66-.133-.159-.322-.24-.567-.241h-.385zm3.322 1.577h-1.048l-.235.653h-.34l.955-2.5h.288l.957 2.5h-.338l-.239-.653zm-.948-.271h.85l-.426-1.17-.424 1.17zm3.367-1.305h-.804v2.23h-.328v-2.23h-.802v-.272h1.934v.272zm1.614 1.576h-1.048l-.235.653h-.34l.955-2.5h.288l.957 2.5h-.338l-.239-.653zm-.948-.271h.85l-.426-1.17-.424 1.17zm4.22-.143c0 .373-.063.65-.19.83-.128.181-.326.271-.596.271-.267 0-.465-.088-.593-.264-.128-.178-.195-.442-.2-.794v-.424c0-.368.064-.64.191-.82.127-.178.327-.267.598-.267.27 0 .467.086.594.26.127.171.193.437.196.796v.412zm-.318-.434c0-.27-.037-.465-.113-.588-.075-.123-.195-.185-.359-.185-.163 0-.281.061-.355.184-.075.122-.113.31-.116.565v.508c0 .27.04.47.117.6a.392.392 0 00.358.192c.156 0 .273-.06.348-.182.077-.121.117-.313.12-.574v-.52zm2.364 1.501h-1.639v-.228l.866-.962c.128-.146.216-.264.264-.354a.592.592 0 00.074-.283.455.455 0 00-.118-.322.414.414 0 00-.316-.125.492.492 0 00-.37.136.514.514 0 00-.13.374h-.318a.74.74 0 01.222-.558c.149-.142.347-.213.596-.213.232 0 .416.061.551.184a.621.621 0 01.203.486c0 .246-.157.54-.47.88l-.67.726h1.255v.26zm5.841 0v-2.5h.706c.218 0 .41.047.577.144a.97.97 0 01.387.41c.091.178.138.381.139.612v.16c0 .235-.046.442-.138.62a.955.955 0 01-.39.408 1.205 1.205 0 01-.589.146h-.692zm.33-2.23v1.96h.347c.254 0 .452-.079.593-.237.141-.158.212-.383.212-.675v-.146c0-.284-.067-.504-.2-.66-.133-.159-.322-.24-.567-.241h-.385zm3.322 1.577h-1.048l-.235.653h-.34l.955-2.5h.288l.957 2.5h-.338l-.24-.653zm-.948-.271h.85l-.426-1.17-.424 1.17zm3.366-1.305h-.803v2.23h-.329v-2.23h-.802v-.272h1.934v.272zm1.615 1.576h-1.048l-.235.653h-.34l.955-2.5h.288l.957 2.5h-.338l-.24-.653zm-.948-.271h.85l-.426-1.17-.424 1.17zm4.22-.143c0 .373-.064.65-.19.83-.128.181-.326.271-.597.271-.266 0-.464-.088-.592-.264-.129-.178-.195-.442-.2-.794v-.424c0-.368.064-.64.191-.82.127-.178.326-.267.598-.267.269 0 .467.086.594.26.127.171.192.437.196.796v.412zm-.318-.434c0-.27-.038-.465-.113-.588-.076-.123-.195-.185-.36-.185-.162 0-.28.061-.355.184-.074.122-.112.31-.115.565v.508c0 .27.04.47.117.6a.392.392 0 00.357.192c.157 0 .273-.06.349-.182.077-.121.117-.313.12-.574v-.52zm1.187.096h.239a.524.524 0 00.354-.119.396.396 0 00.129-.31c0-.294-.146-.44-.438-.44a.457.457 0 00-.33.118.41.41 0 00-.122.311h-.318c0-.198.072-.362.216-.493a.793.793 0 01.553-.197c.236 0 .421.062.555.187.134.125.201.298.201.52a.546.546 0 01-.106.317.632.632 0 01-.287.228.61.61 0 01.318.216.603.603 0 01.113.37.683.683 0 01-.22.534.823.823 0 01-.572.197c-.235 0-.426-.063-.573-.19a.634.634 0 01-.22-.504h.32a.41.41 0 00.128.317.49.49 0 00.345.118c.154 0 .271-.04.352-.12.082-.08.122-.195.122-.345 0-.146-.044-.257-.134-.335-.089-.078-.218-.118-.386-.12h-.239v-.26zm7.946 1.405v-2.5h.706c.217 0 .41.047.577.144a.97.97 0 01.386.41c.092.178.138.381.14.612v.16c0 .235-.046.442-.138.62a.954.954 0 01-.39.408 1.204 1.204 0 01-.59.146h-.691zm.33-2.23v1.96h.346c.255 0 .452-.079.593-.237.142-.158.213-.383.213-.675v-.146c0-.284-.067-.504-.201-.66-.133-.159-.322-.24-.567-.241h-.384zm3.321 1.577h-1.047l-.236.653h-.34l.955-2.5h.289l.956 2.5h-.338l-.239-.653zm-.948-.271h.85l-.425-1.17-.425 1.17zm3.367-1.305h-.804v2.23h-.328v-2.23h-.802v-.272h1.934v.272zm1.614 1.576h-1.047l-.236.653h-.34l.955-2.5h.289l.956 2.5h-.338l-.239-.653zm-.948-.271h.85l-.425-1.17-.425 1.17zm4.22-.143c0 .373-.063.65-.19.83-.127.181-.326.271-.596.271-.267 0-.465-.088-.593-.264-.128-.178-.194-.442-.2-.794v-.424c0-.368.064-.64.192-.82.127-.178.326-.267.597-.267.27 0 .468.086.595.26.127.171.192.437.195.796v.412zm-.317-.434c0-.27-.038-.465-.114-.588-.075-.123-.195-.185-.359-.185-.162 0-.28.061-.355.184-.075.122-.113.31-.115.565v.508c0 .27.039.47.117.6a.392.392 0 00.357.192c.157 0 .273-.06.348-.182.077-.121.117-.313.12-.574v-.52zm2.066.661h.347v.26h-.347v.58h-.32v-.58h-1.138v-.188l1.12-1.733h.338v1.661zm-1.098 0h.779v-1.226l-.038.069-.74 1.157zm7.924.84v-2.5h.706c.218 0 .41.047.577.144a.976.976 0 01.387.41c.091.178.138.381.139.612v.16c0 .235-.046.442-.138.62a.952.952 0 01-.389.408 1.208 1.208 0 01-.59.146h-.692zm.33-2.23v1.96h.347c.254 0 .452-.079.593-.237.142-.158.213-.383.213-.675v-.146c0-.284-.067-.504-.201-.66-.133-.159-.322-.24-.567-.241h-.385zm3.322 1.577h-1.048l-.235.653h-.34l.955-2.5h.288l.957 2.5h-.338l-.239-.653zm-.948-.271h.85l-.426-1.17-.424 1.17zm3.366-1.305h-.804v2.23h-.328v-2.23h-.802v-.272h1.934v.272zm1.615 1.576h-1.048l-.235.653h-.34l.955-2.5h.288l.957 2.5h-.338l-.239-.653zm-.948-.271h.85l-.426-1.17-.424 1.17zm4.22-.143c0 .373-.064.65-.191.83-.127.181-.326.271-.596.271-.267 0-.464-.088-.592-.264-.129-.178-.195-.442-.2-.794v-.424c0-.368.064-.64.191-.82.127-.178.326-.267.598-.267.269 0 .467.086.594.26.127.171.192.437.196.796v.412zm-.318-.434c0-.27-.038-.465-.113-.588-.076-.123-.195-.185-.359-.185-.163 0-.281.061-.356.184-.074.122-.113.31-.115.565v.508c0 .27.039.47.117.6a.392.392 0 00.357.192c.157 0 .273-.06.349-.182.077-.121.117-.313.12-.574v-.52zm.871.247l.127-1.247h1.281v.294h-1.011l-.076.682a.81.81 0 01.418-.108c.227 0 .408.075.542.226.134.15.201.354.201.61 0 .258-.07.461-.209.61-.139.148-.333.221-.583.221a.79.79 0 01-.541-.183.734.734 0 01-.238-.509h.3c.02.143.071.252.153.325a.478.478 0 00.326.108c.148 0 .264-.05.347-.151.085-.1.128-.24.128-.418a.573.573 0 00-.138-.401.46.46 0 00-.362-.153.525.525 0 00-.327.09l-.084.07-.254-.066zm7.848 1.254v-2.5h.706c.218 0 .41.047.577.144a.976.976 0 01.387.41c.091.178.138.381.139.612v.16c0 .235-.046.442-.138.62a.949.949 0 01-.39.408 1.201 1.201 0 01-.589.146h-.692zm.33-2.23v1.96h.347c.254 0 .452-.079.592-.237.142-.158.213-.383.213-.675v-.146c0-.284-.067-.504-.201-.66-.132-.159-.321-.24-.566-.241h-.385zm3.322 1.577h-1.048l-.235.653h-.34l.955-2.5h.288l.957 2.5h-.338l-.239-.653zm-.948-.271h.85l-.426-1.17-.424 1.17zm3.366-1.305h-.804v2.23h-.328v-2.23h-.802v-.272h1.934v.272zm1.615 1.576h-1.048l-.235.653h-.34l.955-2.5h.288l.957 2.5h-.338l-.239-.653zm-.948-.271h.85l-.426-1.17-.424 1.17zm4.22-.143c0 .373-.064.65-.191.83-.127.181-.326.271-.596.271-.267 0-.464-.088-.592-.264-.129-.178-.195-.442-.2-.794v-.424c0-.368.064-.64.191-.82.127-.178.326-.267.598-.267.269 0 .467.086.594.26.127.171.192.437.196.796v.412zm-.318-.434c0-.27-.038-.465-.113-.588-.076-.123-.196-.185-.359-.185-.163 0-.281.061-.356.184-.074.122-.113.31-.115.565v.508c0 .27.039.47.117.6a.392.392 0 00.357.192c.157 0 .273-.06.349-.182.077-.121.117-.313.12-.574v-.52zm1.972-1.002v.27h-.058c-.248.005-.445.078-.591.22-.147.142-.232.342-.255.6a.68.68 0 01.54-.227c.217 0 .391.076.52.23.131.153.196.351.196.594 0 .258-.07.464-.211.618a.723.723 0 01-.564.232.715.715 0 01-.582-.274c-.149-.185-.223-.422-.223-.712v-.121c0-.46.098-.812.294-1.055.196-.244.489-.369.877-.374h.057zm-.417 1.127a.508.508 0 00-.301.098.511.511 0 00-.191.246v.117c0 .206.047.372.139.498a.418.418 0 00.347.189.4.4 0 00.337-.158.655.655 0 00.124-.414.647.647 0 00-.126-.416.395.395 0 00-.329-.16zm7.063 1.376v-2.5h.706c.217 0 .41.047.577.144a.968.968 0 01.386.41c.092.178.138.381.139.612v.16c0 .235-.045.442-.137.62a.954.954 0 01-.39.408 1.204 1.204 0 01-.589.146h-.692zm.329-2.23v1.96h.347c.255 0 .452-.079.593-.237.142-.158.213-.383.213-.675v-.146c0-.284-.067-.504-.201-.66-.133-.159-.322-.24-.567-.241h-.385zm3.322 1.577h-1.047l-.236.653h-.34l.955-2.5h.289l.956 2.5h-.338l-.239-.653zm-.948-.271h.85l-.426-1.17-.424 1.17zm3.367-1.305h-.804v2.23h-.328v-2.23h-.802v-.272h1.934v.272zm1.614 1.576h-1.047l-.236.653h-.34l.955-2.5h.289l.956 2.5h-.338l-.239-.653zm-.948-.271h.85l-.426-1.17-.424 1.17zm4.22-.143c0 .373-.063.65-.19.83-.127.181-.326.271-.596.271-.267 0-.465-.088-.593-.264-.128-.178-.194-.442-.199-.794v-.424c0-.368.063-.64.191-.82.127-.178.326-.267.597-.267.269 0 .468.086.595.26.127.171.192.437.195.796v.412zm-.317-.434c0-.27-.038-.465-.114-.588-.075-.123-.195-.185-.359-.185-.162 0-.281.061-.355.184-.075.122-.113.31-.115.565v.508c0 .27.039.47.116.6a.393.393 0 00.358.192c.157 0 .273-.06.348-.182.077-.121.117-.313.121-.574v-.52zm2.339-.821l-1.036 2.322h-.333l1.032-2.24h-1.353v-.26h1.69v.178zm5.969 2.322v-2.5h.706c.217 0 .41.047.577.144a.968.968 0 01.386.41c.092.178.138.381.139.612v.16c0 .235-.045.442-.137.62a.949.949 0 01-.39.408 1.204 1.204 0 01-.589.146h-.692zm.329-2.23v1.96h.347c.255 0 .452-.079.593-.237.142-.158.213-.383.213-.675v-.146c0-.284-.067-.504-.201-.66-.133-.159-.322-.24-.567-.241h-.385zm3.322 1.577h-1.047l-.236.653h-.34l.955-2.5h.289l.957 2.5h-.339l-.239-.653zm-.948-.271h.85l-.425-1.17-.425 1.17zm3.367-1.305h-.804v2.23h-.328v-2.23h-.802v-.272h1.934v.272zm1.614 1.576h-1.047l-.236.653h-.34l.955-2.5h.289l.956 2.5h-.338l-.239-.653zm-.948-.271h.85l-.426-1.17-.424 1.17zm4.22-.143c0 .373-.063.65-.19.83-.127.181-.326.271-.596.271-.267 0-.465-.088-.593-.264-.128-.178-.194-.442-.199-.794v-.424c0-.368.063-.64.191-.82.127-.178.326-.267.597-.267.269 0 .468.086.595.26.127.171.192.437.195.796v.412zm-.317-.434c0-.27-.038-.465-.114-.588-.075-.123-.195-.185-.359-.185-.162 0-.281.061-.355.184-.075.122-.113.31-.115.565v.508c0 .27.039.47.117.6a.392.392 0 00.357.192c.157 0 .273-.06.348-.182.077-.121.117-.313.121-.574v-.52zm2.241-.347a.58.58 0 01-.099.333.667.667 0 01-.267.229.713.713 0 01.31.245.62.62 0 01.115.366.654.654 0 01-.22.517c-.146.128-.337.192-.576.192-.24 0-.433-.064-.579-.192a.66.66 0 01-.216-.517c0-.135.037-.257.11-.366a.695.695 0 01.307-.247.652.652 0 01-.262-.229.59.59 0 01-.097-.331.65.65 0 01.203-.502.762.762 0 01.534-.185c.22 0 .398.062.533.185a.645.645 0 01.204.502zm-.259 1.166a.46.46 0 00-.134-.342.47.47 0 00-.347-.132.466.466 0 00-.345.13.468.468 0 00-.129.344c0 .142.042.254.125.335a.488.488 0 00.352.122c.149 0 .266-.04.351-.122a.448.448 0 00.127-.335zm-.478-1.592a.413.413 0 00-.304.117.428.428 0 00-.115.314c0 .127.038.23.114.31a.407.407 0 00.305.116.403.403 0 00.304-.117.424.424 0 00.115-.309.424.424 0 00-.118-.31.404.404 0 00-.301-.121z" fill="#F5F7F6"/><defs><linearGradient id="paint0_linear_479_2677" x1="27.131" y1="97.636" x2="27.131" y2="37.761" gradientUnits="userSpaceOnUse"><stop stop-color="#27B7FF"/><stop offset=".99" stop-color="#F408AB"/></linearGradient><linearGradient id="paint1_linear_479_2677" x1="33.632" y1="97.636" x2="33.632" y2="37.761" gradientUnits="userSpaceOnUse"><stop stop-color="#27B7FF"/><stop offset=".99" stop-color="#F408AB"/></linearGradient><linearGradient id="paint2_linear_479_2677" x1="46.633" y1="97.636" x2="46.633" y2="37.761" gradientUnits="userSpaceOnUse"><stop stop-color="#27B7FF"/><stop offset=".99" stop-color="#F408AB"/></linearGradient><linearGradient id="paint3_linear_479_2677" x1="53.133" y1="97.636" x2="53.133" y2="37.761" gradientUnits="userSpaceOnUse"><stop stop-color="#27B7FF"/><stop offset=".99" stop-color="#F408AB"/></linearGradient><linearGradient id="paint4_linear_479_2677" x1="66.135" y1="97.636" x2="66.135" y2="37.761" gradientUnits="userSpaceOnUse"><stop stop-color="#27B7FF"/><stop offset=".99" stop-color="#F408AB"/></linearGradient><linearGradient id="paint5_linear_479_2677" x1="72.635" y1="97.636" x2="72.635" y2="37.761" gradientUnits="userSpaceOnUse"><stop stop-color="#27B7FF"/><stop offset=".99" stop-color="#F408AB"/></linearGradient><linearGradient id="paint6_linear_479_2677" x1="85.636" y1="97.636" x2="85.636" y2="37.761" gradientUnits="userSpaceOnUse"><stop stop-color="#27B7FF"/><stop offset=".99" stop-color="#F408AB"/></linearGradient><linearGradient id="paint7_linear_479_2677" x1="92.137" y1="97.636" x2="92.137" y2="37.761" gradientUnits="userSpaceOnUse"><stop stop-color="#27B7FF"/><stop offset=".99" stop-color="#F408AB"/></linearGradient><linearGradient id="paint8_linear_479_2677" x1="105.138" y1="97.636" x2="105.138" y2="37.761" gradientUnits="userSpaceOnUse"><stop stop-color="#27B7FF"/><stop offset=".99" stop-color="#F408AB"/></linearGradient><linearGradient id="paint9_linear_479_2677" x1="111.638" y1="97.636" x2="111.638" y2="37.761" gradientUnits="userSpaceOnUse"><stop stop-color="#27B7FF"/><stop offset=".99" stop-color="#F408AB"/></linearGradient><linearGradient id="paint10_linear_479_2677" x1="124.64" y1="97.636" x2="124.64" y2="37.761" gradientUnits="userSpaceOnUse"><stop stop-color="#27B7FF"/><stop offset=".99" stop-color="#F408AB"/></linearGradient><linearGradient id="paint11_linear_479_2677" x1="131.14" y1="97.636" x2="131.14" y2="37.761" gradientUnits="userSpaceOnUse"><stop stop-color="#27B7FF"/><stop offset=".99" stop-color="#F408AB"/></linearGradient><linearGradient id="paint12_linear_479_2677" x1="144.141" y1="97.636" x2="144.141" y2="37.761" gradientUnits="userSpaceOnUse"><stop stop-color="#27B7FF"/><stop offset=".99" stop-color="#F408AB"/></linearGradient><linearGradient id="paint13_linear_479_2677" x1="150.642" y1="97.636" x2="150.642" y2="37.761" gradientUnits="userSpaceOnUse"><stop stop-color="#27B7FF"/><stop offset=".99" stop-color="#F408AB"/></linearGradient><linearGradient id="paint14_linear_479_2677" x1="163.643" y1="97.636" x2="163.643" y2="37.761" gradientUnits="userSpaceOnUse"><stop stop-color="#27B7FF"/><stop offset=".99" stop-color="#F408AB"/></linearGradient><linearGradient id="paint15_linear_479_2677" x1="170.144" y1="97.636" x2="170.144" y2="37.761" gradientUnits="userSpaceOnUse"><stop stop-color="#27B7FF"/><stop offset=".99" stop-color="#F408AB"/></linearGradient></defs></svg>