<svg width="253" height="151" fill="none" xmlns="http://www.w3.org/2000/svg"><rect x=".262" width="252.243" height="150.048" rx="14.795" fill="#000"/><rect x=".57" y=".308" width="251.627" height="149.432" rx="14.487" stroke="#fff" stroke-opacity=".5" stroke-width=".616"/><path d="M228.583 27.683H34.072v.592h194.511v-.592zm0 6.627H34.072v.592h194.511v-.592zm0 6.626H34.072v.592h194.511v-.592zm0 6.634H34.072v.601h194.511v-.6zm0 6.627H34.072v.6h194.511v-.6zm0 6.626H34.072v.6h194.511v-.6zm0 6.627H34.072v.592h194.511v-.592zm0 6.626H34.072v.6h194.511v-.6zm0 6.627H34.072v.592h194.511v-.592zm0 6.634H34.072v.593h194.511v-.593zm0 6.627H34.072v.592h194.511v-.592zm0 6.626H34.072v.592h194.511v-.592zm0 6.627H34.072v.592h194.511v-.592zm0 6.626H34.072v.592h194.511v-.592z" fill="#FDFEFF"/><path d="M34.145 27.861h-.592v86.542h.592V27.861zm17.697 0h-.592v86.542h.592V27.861zm17.698 0h-.592v86.542h.592V27.861zm17.698 0h-.593v86.542h.593V27.861zm17.697 0h-.592v86.542h.592V27.861zm17.69 0h-.593v86.542h.593V27.861zm17.697 0h-.592v86.542h.592V27.861zm17.698 0h-.592v86.542h.592V27.861zm17.697 0h-.592v86.542h.592V27.861zm17.698 0h-.592v86.542h.592V27.861zm17.697 0h-.592v86.542h.592V27.861zm17.69 0h-.592v86.542h.592V27.861z" fill="#FDFEFF"/><path d="M47.38 124.374h-2.502v-.349l1.322-1.468c.195-.222.33-.402.403-.54a.903.903 0 00.113-.432c0-.2-.06-.363-.18-.491a.634.634 0 00-.483-.191c-.241 0-.43.069-.564.207-.133.136-.2.327-.2.572h-.484c0-.352.113-.636.338-.852.227-.217.53-.326.91-.326.355 0 .635.094.841.281.206.185.31.433.31.742 0 .376-.24.823-.719 1.342l-1.022 1.109h1.916v.396zm2.907-1.628c0 .568-.097.99-.291 1.266-.194.276-.498.414-.91.414-.407 0-.709-.134-.904-.403-.196-.271-.298-.675-.305-1.211v-.648c0-.561.097-.978.291-1.251.194-.272.498-.409.913-.409.41 0 .713.132.907.396.194.263.294.668.299 1.217v.629zm-.485-.663c0-.411-.058-.71-.173-.897-.116-.189-.298-.283-.548-.283-.248 0-.43.093-.543.28-.113.187-.172.475-.176.863v.776c0 .412.06.717.179.915.12.196.302.294.545.294.24 0 .417-.093.532-.278.117-.186.178-.477.184-.876v-.794zm2.7 2.291h-.488v-3.232l-.978.359v-.441l1.39-.521h.076v3.835zm1.644-1.914l.194-1.903h1.955v.448h-1.544l-.115 1.041c.187-.11.4-.165.637-.165.348 0 .624.115.828.346.205.229.307.539.307.931 0 .393-.106.703-.32.93-.211.226-.507.338-.888.338-.338 0-.613-.093-.826-.28-.213-.187-.335-.446-.365-.776h.46c.029.218.107.384.233.495a.725.725 0 00.498.166.65.65 0 00.53-.231c.129-.154.193-.366.193-.637 0-.255-.07-.46-.21-.614a.705.705 0 00-.553-.233c-.211 0-.377.046-.498.139l-.128.105-.388-.1zm11.635 1.914h-2.5v-.349l1.32-1.468a3.08 3.08 0 00.404-.54.903.903 0 00.113-.432c0-.2-.06-.363-.18-.491a.634.634 0 00-.483-.191c-.241 0-.43.069-.564.207-.133.136-.199.327-.199.572h-.485c0-.352.113-.636.338-.852.227-.217.53-.326.91-.326.355 0 .635.094.841.281.207.185.31.433.31.742 0 .376-.24.823-.719 1.342l-1.022 1.109h1.916v.396zm2.908-1.628c0 .568-.097.99-.291 1.266-.194.276-.497.414-.91.414-.407 0-.709-.134-.904-.403-.196-.271-.297-.675-.305-1.211v-.648c0-.561.097-.978.291-1.251.195-.272.499-.409.913-.409.41 0 .713.132.907.396.194.263.294.668.299 1.217v.629zm-.485-.663c0-.411-.058-.71-.173-.897-.116-.189-.298-.283-.548-.283-.248 0-.43.093-.543.28-.113.187-.172.475-.175.863v.776c0 .412.059.717.178.915.12.196.302.294.545.294.24 0 .417-.093.532-.278.117-.186.179-.477.184-.876v-.794zm2.7 2.291h-.487v-3.232l-.978.359v-.441l1.39-.521h.075v3.835zm3.324-3.82v.412h-.089c-.377.007-.678.119-.902.335-.223.217-.353.522-.388.915.201-.23.476-.346.824-.346.332 0 .596.117.794.352.2.234.299.536.299.907 0 .393-.108.708-.323.944-.213.235-.5.353-.86.353a1.09 1.09 0 01-.888-.419c-.227-.281-.341-.643-.341-1.085v-.187c0-.702.15-1.239.448-1.609.3-.372.747-.563 1.34-.572h.086zm-.637 1.72a.772.772 0 00-.459.15.775.775 0 00-.29.374v.179c0 .314.07.568.212.76.141.192.318.288.53.288a.61.61 0 00.513-.241c.126-.161.189-.371.189-.632 0-.262-.064-.473-.191-.634a.603.603 0 00-.504-.244zm10.363 2.1h-2.5v-.349l1.32-1.468c.196-.222.33-.402.404-.54a.902.902 0 00.113-.432c0-.2-.06-.363-.18-.491a.634.634 0 00-.483-.191c-.242 0-.43.069-.564.207-.133.136-.2.327-.2.572h-.484c0-.352.113-.636.338-.852.227-.217.53-.326.91-.326.355 0 .635.094.841.281.207.185.31.433.31.742 0 .376-.24.823-.719 1.342l-1.022 1.109h1.916v.396zm2.908-1.628c0 .568-.097.99-.291 1.266-.194.276-.498.414-.91.414-.407 0-.709-.134-.904-.403-.196-.271-.298-.675-.305-1.211v-.648c0-.561.097-.978.291-1.251.194-.272.499-.409.913-.409.41 0 .713.132.907.396.194.263.293.668.299 1.217v.629zm-.485-.663c0-.411-.058-.71-.173-.897-.116-.189-.298-.283-.548-.283-.249 0-.43.093-.543.28-.114.187-.172.475-.176.863v.776c0 .412.06.717.179.915.12.196.302.294.545.294.24 0 .417-.093.532-.278.117-.186.178-.477.184-.876v-.794zm2.7 2.291h-.488v-3.232l-.978.359v-.441l1.39-.521h.076v3.835zm3.885-3.544l-1.58 3.544h-.51l1.576-3.419h-2.066v-.398h2.58v.273zm8.169 3.544H98.63v-.349l1.321-1.468c.196-.222.33-.402.404-.54a.904.904 0 00.112-.432c0-.2-.06-.363-.18-.491a.636.636 0 00-.483-.191c-.241 0-.429.069-.563.207-.133.136-.2.327-.2.572h-.485c0-.352.113-.636.338-.852.228-.217.531-.326.91-.326.355 0 .636.094.842.281.206.185.309.433.309.742 0 .376-.239.823-.718 1.342l-1.023 1.109h1.917v.396zm2.907-1.628c0 .568-.097.99-.291 1.266-.194.276-.497.414-.91.414-.407 0-.708-.134-.904-.403-.196-.271-.297-.675-.304-1.211v-.648c0-.561.097-.978.291-1.251.194-.272.498-.409.912-.409.411 0 .713.132.907.396.194.263.294.668.299 1.217v.629zm-.485-.663c0-.411-.058-.71-.173-.897-.115-.189-.298-.283-.548-.283-.248 0-.429.093-.542.28-.114.187-.173.475-.176.863v.776c0 .412.059.717.178.915a.599.599 0 00.545.294c.24 0 .417-.093.533-.278.117-.186.178-.477.183-.876v-.794zm2.7 2.291h-.487v-3.232l-.978.359v-.441l1.389-.521h.076v3.835zm3.736-2.821c0 .191-.05.36-.152.509a1.008 1.008 0 01-.406.348c.199.086.356.211.472.375a.942.942 0 01.175.559c0 .33-.111.593-.335.789-.222.196-.515.293-.878.293-.367 0-.662-.097-.884-.293-.22-.198-.33-.461-.33-.789 0-.207.056-.393.168-.559.113-.166.27-.292.469-.377a.996.996 0 01-.401-.349.896.896 0 01-.147-.506c0-.321.103-.577.309-.765.207-.189.478-.284.816-.284.335 0 .606.095.812.284.208.188.312.444.312.765zm-.396 1.78a.7.7 0 00-.204-.521.715.715 0 00-.53-.202.713.713 0 00-.527.199.715.715 0 00-.196.524c0 .217.064.387.191.511.13.125.309.187.538.187.227 0 .405-.062.534-.187.13-.125.194-.296.194-.511zm-.728-2.43a.625.625 0 00-.464.178c-.118.117-.176.277-.176.48 0 .194.058.351.173.472a.626.626 0 00.467.178.617.617 0 00.464-.178.65.65 0 00.175-.472.648.648 0 00-.181-.475.616.616 0 00-.458-.183zm10.133 3.471h-2.501v-.349l1.321-1.468a3.08 3.08 0 00.404-.54.905.905 0 00.113-.432c0-.2-.061-.363-.181-.491a.636.636 0 00-.483-.191c-.241 0-.429.069-.563.207-.133.136-.199.327-.199.572h-.485c0-.352.112-.636.338-.852.227-.217.53-.326.909-.326.355 0 .636.094.842.281.206.185.309.433.309.742 0 .376-.239.823-.718 1.342l-1.022 1.109h1.916v.396zm2.907-1.628c0 .568-.097.99-.291 1.266-.194.276-.497.414-.909.414-.408 0-.709-.134-.905-.403-.196-.271-.297-.675-.304-1.211v-.648c0-.561.097-.978.291-1.251.194-.272.498-.409.912-.409.411 0 .713.132.907.396.194.263.294.668.299 1.217v.629zm-.485-.663c0-.411-.057-.71-.173-.897-.115-.189-.298-.283-.548-.283-.248 0-.429.093-.542.28-.114.187-.172.475-.176.863v.776c0 .412.059.717.178.915a.6.6 0 00.546.294c.239 0 .416-.093.532-.278.117-.186.178-.477.183-.876v-.794zm2.701 2.291h-.488v-3.232l-.978.359v-.441l1.39-.521h.076v3.835zm3.279-1.678a1.17 1.17 0 01-.364.291.971.971 0 01-.461.11c-.221 0-.413-.054-.577-.162a1.066 1.066 0 01-.378-.456 1.575 1.575 0 01-.133-.653c0-.255.048-.485.144-.69.098-.204.236-.361.414-.469a1.18 1.18 0 01.624-.163c.377 0 .675.142.891.425.219.282.328.666.328 1.154v.141c0 .743-.147 1.286-.44 1.628-.294.341-.737.516-1.33.525h-.094v-.409h.102c.4-.007.708-.111.923-.312.215-.203.332-.523.351-.96zm-.747 0c.163 0 .312-.05.448-.149a.875.875 0 00.302-.37v-.194c0-.318-.069-.577-.207-.776-.138-.199-.313-.299-.524-.299a.619.619 0 00-.514.247c-.13.162-.194.377-.194.645 0 .26.062.475.186.644a.597.597 0 00.503.252zm10.748 1.678H134.9v-.349l1.321-1.468a3.08 3.08 0 00.404-.54.905.905 0 00.113-.432c0-.2-.061-.363-.181-.491a.636.636 0 00-.483-.191c-.241 0-.429.069-.563.207-.133.136-.199.327-.199.572h-.485c0-.352.112-.636.338-.852.227-.217.53-.326.909-.326.355 0 .636.094.842.281.206.185.309.433.309.742 0 .376-.239.823-.718 1.342l-1.022 1.109h1.916v.396zm2.907-1.628c0 .568-.097.99-.291 1.266-.194.276-.497.414-.909.414-.408 0-.709-.134-.905-.403-.195-.271-.297-.675-.304-1.211v-.648c0-.561.097-.978.291-1.251.194-.272.498-.409.912-.409.411 0 .714.132.908.396.194.263.293.668.298 1.217v.629zm-.485-.663c0-.411-.057-.71-.173-.897-.115-.189-.298-.283-.548-.283-.248 0-.429.093-.542.28-.114.187-.172.475-.176.863v.776c0 .412.06.717.178.915a.6.6 0 00.546.294c.239 0 .417-.093.532-.278.117-.186.178-.477.183-.876v-.794zm3.608 2.291h-2.501v-.349l1.321-1.468c.196-.222.33-.402.404-.54a.905.905 0 00.113-.432c0-.2-.061-.363-.181-.491a.636.636 0 00-.483-.191c-.241 0-.429.069-.563.207-.133.136-.2.327-.2.572h-.485c0-.352.113-.636.339-.852.227-.217.53-.326.909-.326.355 0 .636.094.842.281.206.185.309.433.309.742 0 .376-.239.823-.718 1.342l-1.023 1.109h1.917v.396zm2.907-1.628c0 .568-.097.99-.291 1.266-.194.276-.497.414-.909.414-.408 0-.709-.134-.905-.403-.196-.271-.297-.675-.304-1.211v-.648c0-.561.097-.978.291-1.251.194-.272.498-.409.912-.409.411 0 .713.132.907.396.194.263.294.668.299 1.217v.629zm-.485-.663c0-.411-.057-.71-.173-.897-.115-.189-.298-.283-.548-.283-.248 0-.429.093-.542.28-.114.187-.173.475-.176.863v.776c0 .412.059.717.178.915a.6.6 0 00.546.294c.239 0 .416-.093.532-.278.117-.186.178-.477.183-.876v-.794zm9.797 2.291h-2.501v-.349l1.321-1.468a3.08 3.08 0 00.404-.54.905.905 0 00.113-.432c0-.2-.061-.363-.181-.491a.636.636 0 00-.482-.191c-.242 0-.43.069-.564.207-.133.136-.199.327-.199.572h-.485c0-.352.112-.636.338-.852.227-.217.53-.326.91-.326.354 0 .635.094.841.281.206.185.309.433.309.742 0 .376-.239.823-.718 1.342l-1.022 1.109h1.916v.396zm2.907-1.628c0 .568-.097.99-.291 1.266-.194.276-.497.414-.909.414-.407 0-.709-.134-.905-.403-.195-.271-.297-.675-.304-1.211v-.648c0-.561.097-.978.291-1.251.194-.272.498-.409.913-.409.41 0 .713.132.907.396.194.263.293.668.298 1.217v.629zm-.485-.663c0-.411-.057-.71-.173-.897-.115-.189-.298-.283-.547-.283-.249 0-.43.093-.543.28-.114.187-.172.475-.176.863v.776c0 .412.06.717.178.915a.6.6 0 00.546.294c.239 0 .417-.093.532-.278.117-.186.178-.477.183-.876v-.794zm3.608 2.291h-2.501v-.349l1.321-1.468c.196-.222.33-.402.404-.54a.905.905 0 00.113-.432c0-.2-.061-.363-.181-.491a.636.636 0 00-.483-.191c-.241 0-.429.069-.563.207-.133.136-.2.327-.2.572h-.485c0-.352.113-.636.339-.852.227-.217.53-.326.909-.326.355 0 .636.094.842.281.206.185.309.433.309.742 0 .376-.239.823-.718 1.342l-1.023 1.109h1.917v.396zm2.108 0h-.488v-3.232l-.978.359v-.441l1.39-.521h.076v3.835zm9.154 0h-2.501v-.349l1.322-1.468c.195-.222.33-.402.403-.54a.905.905 0 00.113-.432c0-.2-.06-.363-.181-.491a.633.633 0 00-.482-.191c-.241 0-.429.069-.564.207-.133.136-.199.327-.199.572h-.485c0-.352.113-.636.338-.852.227-.217.53-.326.91-.326.355 0 .635.094.841.281.207.185.31.433.31.742 0 .376-.24.823-.719 1.342l-1.022 1.109h1.916v.396zm2.908-1.628c0 .568-.097.99-.291 1.266-.194.276-.498.414-.91.414-.407 0-.709-.134-.904-.403-.196-.271-.298-.675-.305-1.211v-.648c0-.561.097-.978.291-1.251.194-.272.499-.409.913-.409.41 0 .713.132.907.396.194.263.293.668.299 1.217v.629zm-.485-.663c0-.411-.058-.71-.173-.897-.116-.189-.298-.283-.548-.283-.248 0-.429.093-.543.28-.114.187-.172.475-.176.863v.776c0 .412.06.717.179.915.12.196.302.294.545.294.239 0 .417-.093.532-.278.117-.186.178-.477.184-.876v-.794zm3.607 2.291h-2.501v-.349l1.321-1.468a3.08 3.08 0 00.404-.54.905.905 0 00.113-.432c0-.2-.061-.363-.181-.491a.634.634 0 00-.482-.191c-.242 0-.43.069-.564.207-.133.136-.199.327-.199.572h-.485c0-.352.112-.636.338-.852.227-.217.53-.326.91-.326.354 0 .635.094.841.281.206.185.309.433.309.742 0 .376-.239.823-.718 1.342l-1.022 1.109h1.916v.396zm3.015 0h-2.501v-.349l1.321-1.468a3.08 3.08 0 00.404-.54.905.905 0 00.113-.432c0-.2-.061-.363-.181-.491a.636.636 0 00-.483-.191c-.241 0-.429.069-.563.207-.133.136-.199.327-.199.572h-.485c0-.352.112-.636.338-.852.227-.217.53-.326.909-.326.355 0 .636.094.842.281.206.185.309.433.309.742 0 .376-.239.823-.718 1.342l-1.022 1.109h1.916v.396zm8.286 0h-2.501v-.349l1.321-1.468c.196-.222.33-.402.404-.54a.904.904 0 00.112-.432c0-.2-.06-.363-.181-.491a.633.633 0 00-.482-.191c-.241 0-.429.069-.564.207-.132.136-.199.327-.199.572h-.485c0-.352.113-.636.338-.852.228-.217.531-.326.91-.326.355 0 .635.094.842.281.206.185.309.433.309.742 0 .376-.239.823-.718 1.342l-1.023 1.109h1.917v.396zm2.907-1.628c0 .568-.097.99-.291 1.266-.194.276-.497.414-.91.414-.407 0-.708-.134-.904-.403-.196-.271-.297-.675-.304-1.211v-.648c0-.561.097-.978.291-1.251.194-.272.498-.409.912-.409.411 0 .713.132.907.396.194.263.294.668.299 1.217v.629zm-.485-.663c0-.411-.058-.71-.173-.897-.115-.189-.298-.283-.548-.283-.248 0-.429.093-.543.28-.113.187-.172.475-.175.863v.776c0 .412.059.717.178.915a.598.598 0 00.545.294c.24 0 .417-.093.532-.278.118-.186.179-.477.184-.876v-.794zm3.607 2.291h-2.501v-.349l1.322-1.468c.195-.222.33-.402.403-.54a.894.894 0 00.113-.432c0-.2-.06-.363-.181-.491a.633.633 0 00-.482-.191c-.241 0-.429.069-.564.207-.133.136-.199.327-.199.572h-.485c0-.352.113-.636.338-.852.227-.217.531-.326.91-.326.355 0 .635.094.841.281.207.185.31.433.31.742 0 .376-.24.823-.719 1.342l-1.022 1.109h1.916v.396zm1.219-2.144h.365c.229-.004.409-.064.54-.181a.606.606 0 00.197-.475c0-.447-.223-.671-.669-.671-.21 0-.377.06-.503.181a.627.627 0 00-.186.474h-.485c0-.302.11-.553.33-.752.222-.201.503-.302.844-.302.36 0 .642.096.847.286.204.191.307.456.307.795a.837.837 0 01-.163.482.968.968 0 01-.438.349c.21.066.372.176.485.33a.91.91 0 01.173.564c0 .342-.112.614-.335.815-.224.201-.515.301-.873.301-.359 0-.651-.097-.876-.291a.966.966 0 01-.336-.768h.488c0 .201.066.362.197.483.131.12.306.181.527.181.234 0 .413-.062.537-.184.124-.122.186-.298.186-.527 0-.222-.068-.392-.204-.511-.137-.119-.333-.18-.59-.184h-.365v-.395zm10.58 2.144H205.6v-.349l1.321-1.468a3.08 3.08 0 00.404-.54.905.905 0 00.113-.432c0-.2-.06-.363-.181-.491a.634.634 0 00-.482-.191c-.242 0-.429.069-.564.207-.133.136-.199.327-.199.572h-.485c0-.352.113-.636.338-.852.227-.217.53-.326.91-.326.354 0 .635.094.841.281.206.185.31.433.31.742 0 .376-.24.823-.719 1.342l-1.022 1.109h1.916v.396zm2.908-1.628c0 .568-.097.99-.291 1.266-.194.276-.498.414-.91.414-.407 0-.709-.134-.905-.403-.195-.271-.297-.675-.304-1.211v-.648c0-.561.097-.978.291-1.251.194-.272.498-.409.913-.409.41 0 .713.132.907.396.194.263.293.668.299 1.217v.629zm-.485-.663c0-.411-.058-.71-.173-.897-.116-.189-.298-.283-.548-.283-.249 0-.429.093-.543.28-.114.187-.172.475-.176.863v.776c0 .412.06.717.179.915.12.196.302.294.545.294.239 0 .417-.093.532-.278.117-.186.178-.477.184-.876v-.794zm3.607 2.291h-2.501v-.349l1.321-1.468a3.08 3.08 0 00.404-.54.905.905 0 00.113-.432c0-.2-.061-.363-.181-.491a.636.636 0 00-.483-.191c-.241 0-.429.069-.563.207-.133.136-.199.327-.199.572h-.485c0-.352.112-.636.338-.852.227-.217.53-.326.909-.326.355 0 .636.094.842.281.206.185.309.433.309.742 0 .376-.239.823-.718 1.342l-1.022 1.109h1.916v.396zm2.561-1.282h.53v.396h-.53v.886h-.487v-.886h-1.738v-.286l1.709-2.645h.516v2.535zm-1.675 0h1.188v-1.872l-.058.105-1.13 1.767zm-183.733-.127c0 .568-.098.99-.291 1.266-.194.276-.498.414-.91.414-.407 0-.709-.134-.905-.404-.195-.27-.297-.674-.304-1.211v-.647c0-.561.097-.978.291-1.251.194-.272.498-.409.913-.409.41 0 .713.132.907.396.194.262.293.668.299 1.217v.629zm-.485-.664c0-.41-.058-.709-.174-.896-.115-.189-.297-.283-.547-.283-.249 0-.43.093-.543.28-.114.187-.172.475-.176.863v.776c0 .412.06.717.178.915a.6.6 0 00.546.293c.24 0 .417-.092.532-.278.117-.185.178-.477.184-.875v-.795zm-4.294-13.622h-.487v-3.233l-.978.359v-.44l1.39-.522h.075v3.836zm3.815-1.628c0 .568-.097.99-.291 1.266-.194.276-.497.414-.91.414-.407 0-.709-.134-.904-.404-.196-.27-.297-.674-.304-1.211v-.647c0-.561.097-.978.29-1.251.195-.273.499-.409.913-.409.41 0 .713.132.907.396.194.262.294.668.299 1.216v.63zm-.485-.664c0-.41-.058-.709-.173-.896-.115-.189-.298-.283-.548-.283-.248 0-.43.093-.543.28-.113.187-.172.475-.175.863v.776c0 .412.059.717.178.915a.6.6 0 00.545.293c.24 0 .417-.092.532-.278.117-.185.179-.477.184-.875v-.795zm-2.422-10.87H24.91v-.349l1.322-1.468c.195-.222.33-.402.404-.54a.902.902 0 00.112-.432c0-.2-.06-.363-.18-.49a.632.632 0 00-.483-.192c-.241 0-.43.07-.564.207-.132.136-.199.327-.199.572h-.485c0-.352.113-.636.338-.852.228-.217.53-.326.91-.326.355 0 .635.094.841.281.207.185.31.433.31.742 0 .376-.24.823-.718 1.342l-1.023 1.11h1.917v.395zm2.907-1.628c0 .568-.097.99-.291 1.266-.194.276-.497.415-.91.415-.407 0-.709-.135-.904-.404-.196-.271-.297-.675-.304-1.211v-.648c0-.561.097-.978.29-1.25.195-.273.499-.41.913-.41.41 0 .713.132.907.396.194.263.294.668.299 1.217v.629zm-.485-.663c0-.411-.058-.71-.173-.897-.115-.189-.298-.283-.548-.283-.248 0-.43.093-.543.28-.113.188-.172.475-.175.863v.776c0 .412.059.718.178.915.12.196.302.294.545.294.24 0 .417-.093.532-.278.117-.186.179-.477.184-.876v-.794zm-4.218-13.473h.364c.229-.004.41-.064.54-.18a.604.604 0 00.197-.475c0-.448-.223-.672-.669-.672-.21 0-.377.06-.503.181a.626.626 0 00-.186.475h-.485c0-.302.11-.553.33-.753.222-.2.503-.301.844-.301.36 0 .643.095.847.286.204.19.307.455.307.794a.833.833 0 01-.163.482.965.965 0 01-.438.35.93.93 0 01.485.33.912.912 0 01.174.563c0 .343-.112.614-.336.815-.224.201-.515.302-.873.302s-.65-.097-.876-.291a.967.967 0 01-.335-.768h.487c0 .2.066.361.197.482.131.12.307.181.527.181.234 0 .413-.061.537-.183.124-.123.186-.298.186-.527 0-.222-.068-.393-.204-.512-.136-.118-.333-.18-.59-.183h-.364v-.396zm4.703.516c0 .568-.097.99-.291 1.267-.194.276-.497.414-.91.414-.407 0-.709-.135-.904-.404-.196-.27-.297-.675-.304-1.211v-.648c0-.56.097-.977.29-1.25.195-.273.499-.41.913-.41.41 0 .713.133.907.397.194.262.294.667.299 1.216v.63zm-.485-.663c0-.41-.058-.71-.173-.896-.115-.19-.298-.284-.548-.284-.248 0-.43.094-.543.28-.113.188-.172.475-.175.863v.776c0 .413.059.718.178.915.12.196.302.294.545.294.24 0 .417-.093.532-.278.117-.185.179-.477.184-.876v-.794zm-2.876-12.15h.53v.396h-.53v.886h-.488v-.886h-1.738v-.286l1.71-2.645h.516v2.535zm-1.675 0h1.187v-1.872l-.057.105-1.13 1.767zm5.036-.346c0 .568-.097.99-.291 1.266-.194.276-.497.414-.91.414-.407 0-.709-.134-.904-.404-.196-.27-.297-.674-.304-1.21v-.648c0-.561.097-.978.29-1.25.195-.273.499-.41.913-.41.41 0 .713.132.907.396.194.262.294.668.299 1.217v.629zm-.485-.663c0-.411-.058-.71-.173-.897-.115-.189-.298-.283-.548-.283-.248 0-.43.093-.543.28-.113.187-.172.475-.175.863v.776c0 .412.059.717.178.915.12.195.302.293.545.293.24 0 .417-.092.532-.278.117-.185.179-.477.184-.875v-.794zm-4.701-12.249l.194-1.903h1.956v.448H25.74l-.115 1.04c.187-.11.399-.164.637-.164.347 0 .624.115.828.346.204.229.307.539.307.93 0 .394-.107.704-.32.931-.212.225-.508.338-.889.338-.337 0-.612-.093-.826-.28-.213-.187-.334-.446-.364-.776h.459c.03.218.107.383.233.495a.73.73 0 00.498.165.65.65 0 00.53-.23c.13-.154.194-.366.194-.637 0-.256-.07-.46-.21-.614a.703.703 0 00-.553-.233c-.212 0-.378.046-.498.139l-.129.105-.388-.1zm5.186.286c0 .568-.097.99-.291 1.266-.194.276-.497.414-.91.414-.407 0-.709-.134-.904-.404-.196-.27-.297-.674-.304-1.21v-.648c0-.561.097-.978.29-1.25.195-.273.499-.41.913-.41.41 0 .713.132.907.396.194.262.294.668.299 1.217v.629zm-.485-.663c0-.411-.058-.71-.173-.897-.115-.189-.298-.283-.548-.283-.248 0-.43.093-.543.28-.113.187-.172.475-.175.863v.776c0 .412.059.717.178.915.12.195.302.293.545.293.24 0 .417-.092.532-.278.117-.185.179-.477.184-.875v-.794zm-3.02-14.689v.412h-.09c-.377.007-.678.118-.901.335-.224.217-.353.522-.388.915.2-.23.475-.346.823-.346.332 0 .597.117.794.351.2.234.3.537.3.907 0 .394-.108.708-.323.944-.213.236-.5.354-.86.354a1.09 1.09 0 01-.889-.42c-.227-.28-.34-.643-.34-1.085v-.186c0-.703.149-1.239.448-1.61.3-.372.747-.562 1.34-.571h.086zm-.637 1.72a.773.773 0 00-.46.15.778.778 0 00-.29.374v.178c0 .315.07.568.212.76.142.193.318.289.53.289.218 0 .39-.08.514-.241.125-.161.188-.372.188-.632 0-.262-.063-.474-.19-.634a.605.605 0 00-.504-.244zm4.142.472c0 .568-.097.99-.291 1.266-.194.276-.497.414-.91.414-.407 0-.709-.134-.904-.404-.196-.27-.297-.674-.304-1.21v-.648c0-.561.097-.978.29-1.25.195-.274.499-.41.913-.41.41 0 .713.132.907.396.194.262.294.668.299 1.216v.63zm-.485-.664c0-.41-.058-.71-.173-.896-.115-.189-.298-.283-.548-.283-.248 0-.43.093-.543.28-.113.187-.172.475-.175.863v.776c0 .412.059.717.178.915.12.195.302.293.545.293.24 0 .417-.092.532-.278.117-.185.179-.477.184-.875v-.795zm-2.459-14.872l-1.581 3.544h-.509l1.576-3.419h-2.066v-.398h2.58v.273zm2.944 1.916c0 .568-.097.99-.291 1.266-.194.276-.497.415-.91.415-.407 0-.709-.135-.904-.404-.196-.271-.297-.675-.304-1.212v-.647c0-.561.097-.978.29-1.25.195-.273.499-.41.913-.41.41 0 .713.132.907.396.194.262.294.668.299 1.217v.629zm-.485-.663c0-.411-.058-.71-.173-.897-.115-.189-.298-.283-.548-.283-.248 0-.43.093-.543.28-.113.188-.172.475-.175.863v.776c0 .412.059.717.178.915.12.196.302.294.545.294.24 0 .417-.093.532-.278.117-.186.179-.477.184-.876v-.794z" fill="#F5F7F6"/><path d="M210.65 61.042h-18.225l-17.6-12.855-17.446 13.772-18.063-6.578-17.137 26.011h-18.055L86.386 94.515 69.094 74.474l-17.6 6.732v33.627h159.27l-.114-53.79z" fill="url(#paint0_linear_479_2731)"/><path d="M86.313 95.14L68.956 75.017l-17.3 6.618-.325-.86 17.9-6.845L86.452 93.9l17.519-12.961h17.965l17.203-26.117 18.16 6.619 17.511-13.83 17.762 12.97h18.079v.925h-18.379l-17.438-12.742-17.373 13.715-17.957-6.546-17.073 25.922h-18.16L86.313 95.14z" fill="url(#paint1_linear_479_2731)"/><path d="M53.456 81.206a1.96 1.96 0 01-1.963 1.962 1.96 1.96 0 01-1.962-1.963 1.96 1.96 0 011.962-1.962 1.96 1.96 0 011.963 1.963zm17.601-6.732a1.96 1.96 0 01-1.963 1.962 1.96 1.96 0 01-1.963-1.962 1.96 1.96 0 011.963-1.963 1.954 1.954 0 011.963 1.963zm17.292 20.041a1.964 1.964 0 01-1.963 1.963 1.964 1.964 0 01-1.963-1.963 1.96 1.96 0 011.963-1.963 1.96 1.96 0 011.963 1.963zm17.738-13.123a1.96 1.96 0 01-1.963 1.963 1.964 1.964 0 01-1.963-1.963 1.96 1.96 0 011.963-1.963c1.087 0 1.963.884 1.963 1.963zm18.062 0a1.96 1.96 0 01-1.963 1.963 1.964 1.964 0 01-1.962-1.963c0-1.087.884-1.963 1.962-1.963a1.97 1.97 0 011.963 1.963zm17.138-26.011a1.96 1.96 0 01-1.963 1.963 1.964 1.964 0 01-1.962-1.963 1.964 1.964 0 013.925 0zm18.055 6.578a1.96 1.96 0 01-1.963 1.963 1.96 1.96 0 01-1.963-1.963 1.96 1.96 0 011.963-1.963 1.96 1.96 0 011.963 1.963zm17.446-13.772a1.964 1.964 0 01-1.963 1.963 1.964 1.964 0 01-1.963-1.963 1.96 1.96 0 011.963-1.963 1.96 1.96 0 011.963 1.963zm17.6 12.855a1.96 1.96 0 01-1.963 1.963 1.96 1.96 0 01-1.963-1.963 1.96 1.96 0 011.963-1.962c1.079 0 1.963.876 1.963 1.962zm18.225.073a1.964 1.964 0 01-1.963 1.963 1.964 1.964 0 01-1.963-1.963 1.96 1.96 0 011.963-1.963 1.97 1.97 0 011.963 1.963z" fill="#F5F7F6"/><defs><linearGradient id="paint0_linear_479_2731" x1="131.128" y1="125.163" x2="131.128" y2="59.662" gradientUnits="userSpaceOnUse"><stop offset=".01" stop-color="#fff" stop-opacity="0"/><stop offset="1" stop-color="#fff"/></linearGradient><linearGradient id="paint1_linear_479_2731" x1="51.609" y1="71.375" x2="176.256" y2="71.375" gradientUnits="userSpaceOnUse"><stop stop-color="#00EAD1"/><stop offset=".129" stop-color="#00E0D1"/><stop offset=".352" stop-color="#00C4CF"/><stop offset=".641" stop-color="#0097CE"/><stop offset=".982" stop-color="#0058CB"/><stop offset="1" stop-color="#0055CB"/></linearGradient></defs></svg>