<svg width="195" height="119" fill="none" xmlns="http://www.w3.org/2000/svg"><rect x=".676" y=".797" width="193.846" height="117.605" rx="14.795" fill="#000"/><rect x=".985" y="1.105" width="193.229" height="116.989" rx="14.487" stroke="#fff" stroke-opacity=".5" stroke-width=".616"/><path d="M171.107 50.913v42.808H24.554V40.353c6.66 0 6.66 10.552 13.318 10.552 6.667 0 6.667-21.858 13.326-21.858 6.659 0 6.659 36.563 13.326 36.563 6.659 0 6.659-25.257 13.317-25.257 6.66 0 6.66 16.96 13.318 16.96 6.667 0 6.667-7.162 13.326-7.162 6.659 0 6.659 10.179 13.326 10.179 6.659 0 6.659-10.366 13.326-10.366 6.659 0 6.659 23.935 13.318 23.935 6.667 0 6.667-43.538 13.326-43.538 6.659.008 6.659 20.552 13.326 20.552z" fill="url(#paint0_linear_479_2810)"/><path d="M144.455 74.28c-3.618 0-5.272-5.945-7.024-12.24-1.598-5.75-3.253-11.687-6.294-11.687-3.131 0-4.688 2.434-6.351 5.013-1.695 2.636-3.439 5.353-6.975 5.353-3.536 0-5.288-2.677-6.975-5.264-1.655-2.53-3.22-4.915-6.343-4.915-3.163 0-4.728 1.679-6.383 3.463-1.695 1.817-3.447 3.699-6.943 3.699-3.585 0-5.328-4.437-7.007-8.72-1.59-4.055-3.236-8.24-6.31-8.24-3.042 0-4.697 6.278-6.294 12.345-1.752 6.634-3.407 12.904-7.024 12.904-3.65 0-5.296-9.035-7.032-18.598-1.533-8.419-3.277-17.965-6.286-17.965-3.05 0-4.704 5.418-6.302 10.665-1.752 5.759-3.415 11.201-7.024 11.201-3.536 0-5.288-2.774-6.975-5.45-1.655-2.62-3.22-5.102-6.343-5.102a.372.372 0 01-.373-.373c0-.21.17-.373.373-.373 3.537 0 5.288 2.774 6.976 5.45 1.654 2.62 3.22 5.102 6.342 5.102 3.05 0 4.704-5.426 6.302-10.666 1.752-5.758 3.415-11.192 7.024-11.192 3.642 0 5.288 9.027 7.032 18.59 1.533 8.426 3.277 17.973 6.294 17.973 3.041 0 4.696-6.278 6.294-12.345 1.752-6.634 3.406-12.904 7.024-12.904 3.585 0 5.328 4.437 7.007 8.72 1.59 4.055 3.237 8.24 6.31 8.24 3.172 0 4.729-1.68 6.392-3.464 1.695-1.816 3.439-3.698 6.934-3.698 3.537 0 5.28 2.676 6.976 5.256 1.654 2.53 3.22 4.915 6.35 4.915 3.123 0 4.688-2.434 6.343-5.005 1.695-2.636 3.447-5.353 6.983-5.353 3.618 0 5.272 5.945 7.024 12.24 1.598 5.75 3.252 11.695 6.294 11.695 3.009 0 4.753-11.395 6.294-21.445 2.044-13.342 3.633-22.085 7.04-22.085 3.601 0 5.337 5.353 7.016 10.528 1.598 4.923 3.244 10.008 6.302 10.008.211 0 .373.17.373.373 0 .211-.17.373-.373.373-3.61 0-5.345-5.353-7.024-10.535-1.598-4.924-3.244-10.01-6.302-10.01-3.009 0-4.753 11.396-6.294 21.446-2.052 13.334-3.65 22.077-7.048 22.077z" fill="#fff"/><path d="M54.11 28.957a3.017 3.017 0 11-6.034.001 3.017 3.017 0 016.034 0zM40.16 50.54a3.017 3.017 0 11-3.018-3.017 3.012 3.012 0 013.017 3.017zm27.121 14.875a3.017 3.017 0 11-6.033 0 3.017 3.017 0 016.033 0zm13.351-24.843a3.017 3.017 0 11-3.018-3.017 3.027 3.027 0 013.017 3.017zM94.493 57.02a3.017 3.017 0 11-6.033.001 3.017 3.017 0 016.033 0zm13.017-6.358a3.016 3.016 0 11-6.034 0 3.016 3.016 0 116.034 0zm12.823 9.343a3.016 3.016 0 11-6.034 0 3.016 3.016 0 116.034 0zm14.064-10.146a3.016 3.016 0 11-6.034 0 3.016 3.016 0 116.034 0zm12.734 23.724a3.016 3.016 0 11-6.034 0 3.016 3.016 0 116.034 0zm13.975-42.931a3.016 3.016 0 11-6.034 0 3.016 3.016 0 116.034 0z" fill="#018DCE"/><defs><linearGradient id="paint0_linear_479_2810" x1="97.83" y1="95.105" x2="97.83" y2="28.165" gradientUnits="userSpaceOnUse"><stop offset=".01" stop-opacity="0"/><stop offset="1" stop-color="#0198CE"/></linearGradient></defs></svg>