<svg width="282" height="57" fill="none" xmlns="http://www.w3.org/2000/svg"><path d="M23.403 6.126a22.753 22.753 0 013.546-.466V0a28.002 28.002 0 00-5.012.66l1.466 5.466z" fill="url(#paint0_linear_479_2896)"/><path d="M13.049 11.423a23.254 23.254 0 012.841-2.182l-2.83-4.91a28.673 28.673 0 00-4.012 3.08l4 4.012z" fill="url(#paint1_linear_479_2896)"/><path d="M17.879 8.093c1.057-.546 2.16-1 3.308-1.364L19.72 1.25a28.106 28.106 0 00-4.671 1.944l2.83 4.899z" fill="url(#paint2_linear_479_2896)"/><path d="M9.24 15.89c.649-1 1.376-1.955 2.183-2.842l-4.001-4a28.681 28.681 0 00-3.08 4.012l4.899 2.83z" fill="url(#paint3_linear_479_2896)"/><path d="M5.66 26.96c.057-1.215.216-2.398.466-3.546L.66 21.948A29.075 29.075 0 000 26.961h5.66z" fill="url(#paint4_linear_479_2896)"/><path d="M6.717 21.187a23.51 23.51 0 011.364-3.308l-4.899-2.83A28.107 28.107 0 001.24 19.72l5.478 1.467z" fill="url(#paint5_linear_479_2896)"/><path d="M53.023 15.049l-4.899 2.83c.546 1.057 1 2.16 1.364 3.308l5.479-1.467a28.683 28.683 0 00-1.944-4.671z" fill="url(#paint6_linear_479_2896)"/><path d="M44.783 13.048c.796.887 1.523 1.83 2.182 2.842l4.91-2.83a28.676 28.676 0 00-3.08-4.013l-4.012 4.001z" fill="url(#paint7_linear_479_2896)"/><path opacity=".43" d="M35.02 6.729c1.147.375 2.25.83 3.307 1.364l2.83-4.9a28.105 28.105 0 00-4.671-1.943L35.02 6.73zm5.296 2.511c1 .649 1.955 1.376 2.842 2.183l4-4a28.673 28.673 0 00-4.012-3.081l-2.83 4.899zM29.257 5.66c1.216.057 2.398.216 3.546.466L34.269.66A29.074 29.074 0 0029.257 0v5.66z" fill="#406EB2"/><path d="M6.126 32.803a22.751 22.751 0 01-.466-3.546H0c.068 1.716.296 3.387.66 5.012l5.466-1.466z" fill="url(#paint8_linear_479_2896)"/><path d="M8.093 38.327a21.08 21.08 0 01-1.364-3.308L1.25 36.486a28.106 28.106 0 001.944 4.671l4.899-2.83z" fill="url(#paint9_linear_479_2896)"/><path d="M43.158 44.783a23.251 23.251 0 01-2.842 2.182l2.83 4.91a28.668 28.668 0 004.013-3.08l-4.001-4.012z" fill="url(#paint10_linear_479_2896)"/><path d="M49.489 35.03a23.506 23.506 0 01-1.364 3.308l4.898 2.83a28.112 28.112 0 001.944-4.671l-5.478-1.466z" fill="url(#paint11_linear_479_2896)"/><path d="M38.327 48.113c-1.057.546-2.16 1-3.307 1.364l1.466 5.479a28.094 28.094 0 004.671-1.944l-2.83-4.899z" fill="url(#paint12_linear_479_2896)"/><path d="M50.08 23.403c.25 1.148.398 2.341.466 3.546h5.66a28.004 28.004 0 00-.659-5.012l-5.467 1.466z" fill="url(#paint13_linear_479_2896)"/><path d="M50.546 29.257a21.312 21.312 0 01-.466 3.546l5.467 1.466a29.08 29.08 0 00.66-5.012h-5.661z" fill="url(#paint14_linear_479_2896)"/><path d="M46.965 40.327a21.99 21.99 0 01-2.182 2.842l4 4a28.675 28.675 0 003.081-4.011l-4.899-2.83z" fill="url(#paint15_linear_479_2896)"/><path d="M15.89 46.965c-1-.648-1.955-1.375-2.841-2.182l-4.001 4a28.674 28.674 0 004.012 3.081l2.83-4.899z" fill="url(#paint16_linear_479_2896)"/><path d="M11.423 43.157a23.255 23.255 0 01-2.182-2.841l-4.91 2.83a28.679 28.679 0 003.08 4.012l4.012-4z" fill="url(#paint17_linear_479_2896)"/><path d="M26.95 50.546a21.312 21.312 0 01-3.547-.466l-1.466 5.467c1.625.364 3.296.58 5.012.659v-5.66z" fill="url(#paint18_linear_479_2896)"/><path d="M21.187 49.488a23.5 23.5 0 01-3.308-1.364l-2.83 4.9a28.112 28.112 0 004.671 1.943l1.467-5.479z" fill="url(#paint19_linear_479_2896)"/><path d="M32.803 50.08a22.76 22.76 0 01-3.546.466v5.66a28.005 28.005 0 005.012-.66l-1.466-5.466z" fill="url(#paint20_linear_479_2896)"/><path d="M98.125 6.126a22.75 22.75 0 013.546-.466V0a28.004 28.004 0 00-5.013.66l1.467 5.466z" fill="url(#paint21_linear_479_2896)"/><path d="M87.759 11.423A23.254 23.254 0 0190.6 9.241l-2.83-4.91a28.674 28.674 0 00-4.012 3.08l4 4.012z" fill="url(#paint22_linear_479_2896)"/><path d="M92.59 8.093c1.056-.546 2.159-1 3.307-1.364L94.43 1.25a28.106 28.106 0 00-4.672 1.944l2.83 4.899z" fill="url(#paint23_linear_479_2896)"/><path d="M83.962 15.89c.648-1 1.376-1.955 2.183-2.842l-4.001-4a28.683 28.683 0 00-3.08 4.012l4.898 2.83z" fill="url(#paint24_linear_479_2896)"/><path d="M80.382 26.96c.057-1.215.216-2.398.466-3.546l-5.467-1.466a29.08 29.08 0 00-.66 5.013h5.66z" fill="url(#paint25_linear_479_2896)"/><path d="M81.439 21.187a23.5 23.5 0 011.364-3.308l-4.899-2.83a28.107 28.107 0 00-1.944 4.671l5.479 1.467z" fill="url(#paint26_linear_479_2896)"/><path opacity=".43" d="M127.734 15.049l-4.899 2.83c.545 1.057 1 2.16 1.364 3.308l5.478-1.467a27.69 27.69 0 00-1.943-4.671zm-8.241-2.001a23.18 23.18 0 012.182 2.842l4.911-2.83a28.71 28.71 0 00-3.081-4.013l-4.012 4.001zm-9.752-6.319c1.148.375 2.25.83 3.308 1.364l2.83-4.9a28.089 28.089 0 00-4.672-1.943l-1.466 5.479zm5.297 2.511c1 .649 1.955 1.376 2.841 2.183l4.001-4a28.688 28.688 0 00-4.012-3.081l-2.83 4.899zm-11.071-3.58c1.216.057 2.398.216 3.546.466L108.979.66a29.067 29.067 0 00-5.012-.66v5.66z" fill="#406EB2"/><path d="M80.837 32.803a22.748 22.748 0 01-.466-3.546h-5.66c.067 1.716.295 3.387.658 5.012l5.468-1.466z" fill="url(#paint27_linear_479_2896)"/><path d="M82.803 38.327c-.546-1.057-1-2.16-1.364-3.308l-5.479 1.467a28.104 28.104 0 001.944 4.671l4.899-2.83z" fill="url(#paint28_linear_479_2896)"/><path d="M117.868 44.783a23.264 23.264 0 01-2.842 2.182l2.83 4.91a28.692 28.692 0 004.013-3.08l-4.001-4.012z" fill="url(#paint29_linear_479_2896)"/><path d="M124.199 35.03a23.517 23.517 0 01-1.364 3.308l4.899 2.83a28.085 28.085 0 001.943-4.671l-5.478-1.466z" fill="url(#paint30_linear_479_2896)"/><path d="M113.049 48.113c-1.058.546-2.16 1-3.308 1.364l1.466 5.479a28.078 28.078 0 004.672-1.944l-2.83-4.899z" fill="url(#paint31_linear_479_2896)"/><path opacity=".43" d="M124.79 23.403c.25 1.148.398 2.341.466 3.546h5.66a27.959 27.959 0 00-.659-5.012l-5.467 1.466z" fill="#406EB2"/><path d="M125.256 29.257a21.333 21.333 0 01-.466 3.546l5.467 1.466c.364-1.625.58-3.296.659-5.012h-5.66z" fill="url(#paint32_linear_479_2896)"/><path d="M121.675 40.327a21.9 21.9 0 01-2.182 2.842l4.001 4a28.62 28.62 0 003.08-4.011l-4.899-2.83z" fill="url(#paint33_linear_479_2896)"/><path d="M90.6 46.965c-1-.648-1.955-1.375-2.841-2.182l-4.001 4a28.675 28.675 0 004.012 3.081l2.83-4.899z" fill="url(#paint34_linear_479_2896)"/><path d="M86.133 43.157a23.25 23.25 0 01-2.182-2.841l-4.91 2.83a28.68 28.68 0 003.08 4.012l4.012-4z" fill="url(#paint35_linear_479_2896)"/><path d="M101.671 50.546a21.314 21.314 0 01-3.546-.466l-1.467 5.467a29.08 29.08 0 005.013.659v-5.66z" fill="url(#paint36_linear_479_2896)"/><path d="M95.897 49.488a23.5 23.5 0 01-3.308-1.364l-2.83 4.9a28.112 28.112 0 004.672 1.943l1.466-5.479z" fill="url(#paint37_linear_479_2896)"/><path d="M107.513 50.08c-1.148.25-2.341.397-3.546.466v5.66a27.998 27.998 0 005.012-.66l-1.466-5.466z" fill="url(#paint38_linear_479_2896)"/><path d="M176.12 6.126a22.761 22.761 0 013.546-.466V0a27.996 27.996 0 00-5.012.66l1.466 5.466z" fill="url(#paint39_linear_479_2896)"/><path d="M165.765 11.423a23.259 23.259 0 012.842-2.182l-2.83-4.91a28.698 28.698 0 00-4.013 3.08l4.001 4.012z" fill="url(#paint40_linear_479_2896)"/><path d="M170.585 8.093a21.07 21.07 0 013.307-1.364l-1.466-5.479a28.124 28.124 0 00-4.672 1.944l2.831 4.899z" fill="url(#paint41_linear_479_2896)"/><path d="M161.958 15.89a21.99 21.99 0 012.182-2.842l-4.001-4a28.628 28.628 0 00-3.08 4.012l4.899 2.83z" fill="url(#paint42_linear_479_2896)"/><path d="M158.377 26.96c.057-1.215.216-2.398.466-3.546l-5.467-1.466a29.188 29.188 0 00-.659 5.013h5.66z" fill="url(#paint43_linear_479_2896)"/><path d="M159.434 21.187c.375-1.148.83-2.25 1.364-3.308l-4.899-2.83a28.087 28.087 0 00-1.943 4.671l5.478 1.467z" fill="url(#paint44_linear_479_2896)"/><path opacity=".43" d="M205.729 15.049l-4.899 2.83a20.971 20.971 0 011.364 3.308l5.479-1.467a27.777 27.777 0 00-1.944-4.671zm-8.24-2.001a23.28 23.28 0 012.182 2.842l4.91-2.83a28.628 28.628 0 00-3.08-4.013l-4.012 4.001zm-9.752-6.319c1.148.375 2.25.83 3.307 1.364l2.83-4.9a28.114 28.114 0 00-4.671-1.943l-1.466 5.479zm5.296 2.511a21.98 21.98 0 012.842 2.183l4.001-4a28.639 28.639 0 00-4.013-3.081l-2.83 4.899zm-11.071-3.58a21.33 21.33 0 013.547.466L186.975.66a29.065 29.065 0 00-5.013-.66v5.66z" fill="#406EB2"/><path d="M158.832 32.803a22.736 22.736 0 01-.466-3.546h-5.66a27.96 27.96 0 00.659 5.012l5.467-1.466z" fill="url(#paint45_linear_479_2896)"/><path d="M160.798 38.327c-.545-1.057-1-2.16-1.364-3.308l-5.478 1.467a28.085 28.085 0 001.943 4.671l4.899-2.83z" fill="url(#paint46_linear_479_2896)"/><path opacity=".43" d="M195.863 44.783a23.254 23.254 0 01-2.841 2.182l2.83 4.91a28.683 28.683 0 004.012-3.08l-4.001-4.012zm6.331-9.753a23.399 23.399 0 01-1.364 3.308l4.899 2.83a28.174 28.174 0 001.944-4.671l-5.479-1.466zm-11.15 13.083c-1.057.546-2.159 1-3.307 1.364l1.466 5.479a28.103 28.103 0 004.671-1.944l-2.83-4.899zm11.741-24.71c.25 1.148.398 2.341.466 3.546h5.661a28.05 28.05 0 00-.659-5.012l-5.468 1.466zm.466 5.854a21.228 21.228 0 01-.466 3.546l5.468 1.466a29.18 29.18 0 00.659-5.012h-5.661zm-3.58 11.07a21.99 21.99 0 01-2.182 2.842l4.001 4a28.697 28.697 0 003.08-4.011l-4.899-2.83z" fill="#406EB2"/><path d="M168.596 46.965a21.915 21.915 0 01-2.842-2.182l-4.001 4a28.69 28.69 0 004.012 3.081l2.831-4.899z" fill="url(#paint47_linear_479_2896)"/><path d="M164.129 43.157a23.295 23.295 0 01-2.183-2.841l-4.91 2.83a28.702 28.702 0 003.08 4.012l4.013-4z" fill="url(#paint48_linear_479_2896)"/><path d="M179.666 50.546a21.31 21.31 0 01-3.546-.466l-1.466 5.467c1.625.364 3.296.58 5.012.659v-5.66z" fill="url(#paint49_linear_479_2896)"/><path d="M173.892 49.488a23.487 23.487 0 01-3.307-1.364l-2.831 4.9a28.13 28.13 0 004.672 1.943l1.466-5.479z" fill="url(#paint50_linear_479_2896)"/><path opacity=".43" d="M185.509 50.08c-1.148.25-2.342.397-3.547.466v5.66a27.998 27.998 0 005.013-.66l-1.466-5.466z" fill="#406EB2"/><path d="M248.33 6.126a22.746 22.746 0 013.546-.466V0a27.996 27.996 0 00-5.012.66l1.466 5.466z" fill="url(#paint51_linear_479_2896)"/><path d="M237.975 11.423a23.259 23.259 0 012.842-2.182l-2.83-4.91a28.698 28.698 0 00-4.013 3.08l4.001 4.012z" fill="url(#paint52_linear_479_2896)"/><path d="M242.795 8.093a21.07 21.07 0 013.307-1.364l-1.466-5.479a28.124 28.124 0 00-4.672 1.944l2.831 4.899z" fill="url(#paint53_linear_479_2896)"/><path d="M234.167 15.89c.648-1 1.376-1.955 2.183-2.842l-4.001-4a28.628 28.628 0 00-3.08 4.012l4.898 2.83z" fill="url(#paint54_linear_479_2896)"/><path d="M230.587 26.96c.057-1.215.216-2.398.466-3.546l-5.467-1.466a28.992 28.992 0 00-.659 5.013h5.66z" fill="url(#paint55_linear_479_2896)"/><path d="M231.644 21.187c.375-1.148.83-2.25 1.364-3.308l-4.899-2.83a28.087 28.087 0 00-1.943 4.671l5.478 1.467z" fill="url(#paint56_linear_479_2896)"/><path opacity=".43" d="M277.939 15.049l-4.899 2.83c.546 1.057 1 2.16 1.364 3.308l5.479-1.467a27.777 27.777 0 00-1.944-4.671zm-8.229-2.001a23.28 23.28 0 012.182 2.842l4.91-2.83a28.628 28.628 0 00-3.08-4.013l-4.012 4.001zm-9.764-6.319c1.148.375 2.251.83 3.308 1.364l2.83-4.9a28.114 28.114 0 00-4.671-1.943l-1.467 5.479zm5.297 2.511c1 .649 1.955 1.376 2.841 2.183l4.001-4a28.688 28.688 0 00-4.012-3.081l-2.83 4.899zm-11.071-3.58c1.216.057 2.398.216 3.546.466L259.185.66a29.091 29.091 0 00-5.013-.66v5.66zm-23.119 27.143a22.736 22.736 0 01-.466-3.546h-5.66a27.96 27.96 0 00.659 5.012l5.467-1.466zm1.955 5.524c-.546-1.057-1-2.16-1.364-3.308l-5.478 1.467a28.085 28.085 0 001.943 4.671l4.899-2.83zm35.076 6.456a23.177 23.177 0 01-2.841 2.182l2.83 4.91a28.683 28.683 0 004.012-3.08l-4.001-4.012zm6.32-9.753a23.517 23.517 0 01-1.364 3.308l4.899 2.83a28.174 28.174 0 001.944-4.671l-5.479-1.466zm-11.15 13.083c-1.057.546-2.16 1-3.308 1.364l1.467 5.479a28.103 28.103 0 004.671-1.944l-2.83-4.899zm11.752-24.71c.25 1.148.398 2.341.466 3.546h5.661a28.05 28.05 0 00-.659-5.012l-5.468 1.466zm.455 5.854a21.333 21.333 0 01-.466 3.546l5.467 1.466a29.09 29.09 0 00.66-5.012h-5.661zm-3.58 11.07c-.648 1-1.376 1.955-2.183 2.842l4.001 4a28.703 28.703 0 003.081-4.011l-4.899-2.83zm-31.076 6.638c-1-.648-1.955-1.375-2.841-2.182l-4.001 4a28.69 28.69 0 004.012 3.081l2.83-4.899zm-4.455-3.808a23.188 23.188 0 01-2.182-2.841l-4.911 2.83a28.709 28.709 0 003.081 4.012l4.012-4zm15.526 7.389a21.31 21.31 0 01-3.546-.466l-1.466 5.467c1.625.364 3.296.58 5.012.659v-5.66zm-5.774-1.058a23.487 23.487 0 01-3.307-1.364l-2.831 4.9a28.13 28.13 0 004.672 1.943l1.466-5.479zm11.616.592c-1.148.25-2.341.397-3.546.466v5.66a28.022 28.022 0 005.013-.66l-1.467-5.466z" fill="#406EB2"/><path d="M20.503 28.969c0 .475-.127.897-.38 1.267-.248.37-.585.66-1.012.87.496.213.888.524 1.176.934.292.41.438.873.438 1.392 0 .823-.28 1.478-.837 1.966-.553.488-1.283.732-2.189.732-.914 0-1.648-.244-2.201-.732-.55-.492-.824-1.148-.824-1.967 0-.514.14-.977.419-1.391a2.643 2.643 0 011.17-.941 2.494 2.494 0 01-1-.869 2.24 2.24 0 01-.367-1.261c0-.802.257-1.437.771-1.908.514-.47 1.192-.706 2.033-.706.836 0 1.511.236 2.025.706.518.47.777 1.107.777 1.908zm-.987 4.436c0-.531-.17-.964-.51-1.3-.335-.335-.775-.503-1.32-.503-.544 0-.982.166-1.313.497-.326.33-.49.766-.49 1.306s.16.965.477 1.274c.322.31.769.464 1.34.464.566 0 1.01-.154 1.332-.464.323-.313.484-.738.484-1.274zM17.7 27.35c-.475 0-.86.148-1.157.444-.292.292-.438.69-.438 1.196 0 .483.144.875.431 1.176.292.296.68.444 1.163.444.484 0 .87-.148 1.157-.444.292-.3.438-.693.438-1.176 0-.484-.15-.878-.451-1.183-.3-.305-.682-.457-1.143-.457zm10.512 4.593c0 1.416-.241 2.467-.725 3.156-.483.688-1.24 1.032-2.267 1.032-1.015 0-1.767-.336-2.254-1.006-.488-.675-.74-1.682-.758-3.019v-1.614c0-1.398.242-2.437.725-3.116.483-.68 1.241-1.02 2.274-1.02 1.023 0 1.777.33 2.26.987.484.654.732 1.664.745 3.032v1.568zm-1.209-1.653c0-1.024-.143-1.769-.43-2.235-.288-.47-.743-.705-1.366-.705-.619 0-1.07.233-1.353.699-.283.466-.429 1.182-.438 2.15v1.933c0 1.028.149 1.788.445 2.28.3.488.753.732 1.359.732.597 0 1.039-.23 1.326-.692.292-.462.444-1.19.457-2.182v-1.98zm2.653-1.973c0-.571.181-1.041.543-1.412.365-.37.834-.555 1.404-.555.58 0 1.048.187 1.405.562.361.37.542.851.542 1.444v.464c0 .575-.183 1.045-.549 1.411-.361.361-.823.542-1.385.542-.566 0-1.034-.18-1.404-.542-.37-.366-.556-.852-.556-1.457v-.457zm.902.503c0 .34.096.62.287.843.192.217.449.326.771.326.31 0 .558-.107.745-.32.192-.213.288-.505.288-.875v-.477c0-.34-.094-.621-.281-.843-.188-.222-.442-.333-.765-.333-.322 0-.577.11-.764.333-.188.222-.281.512-.281.869v.477zm3.73 4.848c0-.57.181-1.04.543-1.405.366-.37.834-.555 1.405-.555.57 0 1.039.183 1.404.548.366.366.55.852.55 1.457v.464c0 .571-.184 1.041-.55 1.412-.361.365-.825.548-1.391.548-.567 0-1.035-.18-1.405-.542-.37-.366-.555-.851-.555-1.457v-.47zm.902.51c0 .343.096.627.288.849.191.217.448.326.77.326.314 0 .565-.106.752-.32.187-.217.281-.511.281-.882v-.483c0-.344-.096-.625-.288-.843-.187-.218-.44-.327-.757-.327a.973.973 0 00-.758.327c-.192.213-.288.503-.288.869v.483zm-3.3 1.104l-.685-.432 4.645-7.435.686.431-4.645 7.436zm-16.713-13.45v-4.484h1.266c.39 0 .735.086 1.035.258.3.173.53.418.693.736.164.319.247.684.25 1.097v.287c0 .422-.083.793-.247 1.111a1.71 1.71 0 01-.7.733 2.16 2.16 0 01-1.056.262h-1.241zm.591-3.998v3.515h.622c.456 0 .81-.142 1.063-.425.255-.284.382-.687.382-1.21v-.263c0-.509-.12-.904-.36-1.186-.239-.283-.578-.427-1.017-.43h-.69zm5.957 2.828h-1.879l-.422 1.17h-.61l1.713-4.484h.517l1.716 4.484h-.607l-.428-1.17zm-1.7-.487h1.524l-.763-2.097-.761 2.097zm6.037-2.34H24.62v3.997h-.588v-3.998h-1.438v-.486h3.468v.486zm2.895 2.827h-1.879l-.422 1.17h-.61l1.713-4.484h.517l1.716 4.484h-.607l-.428-1.17zm-1.7-.487h1.525l-.764-2.097-.761 2.097zm7.568-.256c0 .668-.114 1.164-.342 1.488-.228.325-.584.487-1.069.487-.478 0-.833-.158-1.063-.474-.23-.319-.349-.793-.357-1.424v-.76c0-.66.114-1.15.342-1.47.228-.32.585-.48 1.072-.48.482 0 .838.155 1.066.465.228.308.345.784.35 1.43v.738zm-.57-.779c0-.482-.068-.833-.203-1.053-.136-.222-.35-.333-.644-.333-.292 0-.504.11-.638.33-.133.22-.202.557-.206 1.013v.912c0 .485.07.843.21 1.075.141.23.355.345.64.345.281 0 .49-.109.625-.327.138-.217.21-.56.216-1.029v-.933zm3.172 2.692h-.572v-3.797l-1.15.421v-.517l1.633-.613h.09v4.506zm59.743 5.334l-3.94 8.833h-1.268l3.926-8.52H90.74v-.993h6.43v.68zm1.927 4.064l.483-4.744h4.874v1.117h-3.848l-.288 2.594a3.072 3.072 0 011.588-.411c.867 0 1.555.287 2.065.862.509.57.764 1.344.764 2.32 0 .98-.266 1.753-.797 2.32-.527.561-1.265.842-2.215.842-.841 0-1.527-.233-2.058-.7-.532-.465-.834-1.11-.908-1.933H99.9c.074.544.268.956.582 1.235.313.274.727.411 1.241.411.562 0 1.002-.191 1.32-.575.322-.383.483-.912.483-1.587 0-.636-.174-1.146-.522-1.53-.344-.387-.804-.58-1.379-.58-.527 0-.941.115-1.241.346l-.32.26-.967-.247zm6.853-2.914c0-.571.181-1.041.543-1.412.366-.37.834-.555 1.404-.555.58 0 1.048.187 1.405.562.362.37.542.851.542 1.444v.464c0 .575-.182 1.045-.548 1.411-.362.361-.824.542-1.386.542-.566 0-1.034-.18-1.404-.542-.37-.366-.556-.852-.556-1.457v-.457zm.902.503c0 .34.096.62.288.843.191.217.448.326.77.326.31 0 .558-.107.745-.32.192-.213.288-.505.288-.875v-.477c0-.34-.094-.621-.281-.843-.187-.222-.442-.333-.765-.333-.322 0-.577.11-.764.333-.187.222-.281.512-.281.869v.477zm3.731 4.848c0-.57.181-1.04.542-1.405.366-.37.834-.555 1.405-.555.57 0 1.039.183 1.405.548.365.366.548.852.548 1.457v.464c0 .571-.183 1.041-.548 1.412-.362.365-.826.548-1.392.548s-1.035-.18-1.405-.542c-.37-.366-.555-.851-.555-1.457v-.47zm.901.51c0 .343.096.627.288.849.192.217.449.326.771.326.314 0 .564-.106.751-.32.188-.217.281-.511.281-.882v-.483c0-.344-.096-.625-.287-.843-.188-.218-.44-.327-.758-.327a.974.974 0 00-.758.327c-.192.213-.288.503-.288.869v.483zm-3.299 1.104l-.686-.432 4.645-7.435.686.431-4.645 7.436zM91.471 21.832v-4.484h1.266c.39 0 .735.086 1.035.258.3.173.53.418.693.736.164.319.247.684.25 1.097v.287c0 .422-.083.793-.247 1.111a1.71 1.71 0 01-.7.733c-.301.17-.653.258-1.056.262h-1.241zm.591-3.998v3.515h.623c.455 0 .81-.142 1.062-.425.255-.284.382-.687.382-1.21v-.263c0-.509-.12-.904-.36-1.186-.239-.283-.577-.427-1.017-.43h-.69zm5.957 2.828H96.14l-.422 1.17h-.61l1.713-4.484h.518l1.715 4.484h-.607l-.428-1.17zm-1.7-.487h1.525l-.764-2.097-.76 2.097zm6.037-2.34h-1.441v3.997h-.589v-3.998h-1.438v-.486h3.468v.486zm2.895 2.827h-1.879l-.421 1.17h-.61l1.712-4.484h.518l1.715 4.484h-.607l-.428-1.17zm-1.7-.487h1.525l-.764-2.097-.761 2.097zm7.568-.256c0 .668-.114 1.164-.342 1.488-.228.325-.584.487-1.069.487-.478 0-.832-.158-1.062-.474-.23-.319-.349-.793-.358-1.424v-.76c0-.66.114-1.15.342-1.47.228-.32.585-.48 1.072-.48.483 0 .838.155 1.066.465.228.308.345.784.351 1.43v.738zm-.57-.779c0-.482-.068-.833-.203-1.053-.136-.222-.35-.333-.644-.333-.292 0-.504.11-.638.33-.133.22-.202.557-.206 1.013v.912c0 .485.07.843.21 1.075.141.23.355.345.64.345.282 0 .49-.109.625-.327.138-.217.21-.56.216-1.029v-.933zm3.173 2.692h-.573v-3.797l-1.149.421v-.517l1.632-.613h.09v4.506zm55.548 9.398l.483-4.744h4.874v1.117h-3.848l-.288 2.594a3.072 3.072 0 011.588-.411c.867 0 1.555.287 2.065.862.509.57.764 1.344.764 2.32 0 .98-.266 1.753-.797 2.32-.527.561-1.265.842-2.215.842-.841 0-1.527-.233-2.058-.7-.531-.465-.834-1.11-.908-1.933h1.143c.074.544.268.956.582 1.235.313.274.727.411 1.241.411.562 0 1.002-.191 1.32-.575.322-.383.483-.912.483-1.587 0-.636-.174-1.146-.522-1.53-.344-.387-.804-.58-1.379-.58-.527 0-.941.115-1.241.346l-.32.26-.967-.247zm12.923.712c0 1.416-.242 2.467-.725 3.156-.484.688-1.239 1.032-2.267 1.032-1.015 0-1.767-.336-2.254-1.006-.488-.675-.741-1.682-.758-3.019v-1.614c0-1.398.241-2.437.725-3.116.483-.68 1.241-1.02 2.274-1.02 1.023 0 1.777.33 2.26.987.484.654.732 1.664.745 3.032v1.568zm-1.209-1.653c0-1.024-.143-1.769-.431-2.235-.287-.47-.742-.705-1.365-.705-.619 0-1.07.233-1.353.699-.283.466-.429 1.182-.438 2.15v1.933c0 1.028.149 1.788.445 2.28.3.488.753.732 1.359.732.597 0 1.039-.23 1.326-.692.292-.462.444-1.19.457-2.182v-1.98zm2.653-1.973c0-.571.181-1.041.542-1.412.366-.37.835-.555 1.405-.555.58 0 1.048.187 1.405.562.361.37.542.851.542 1.444v.464c0 .575-.183 1.045-.549 1.411-.361.361-.823.542-1.385.542-.566 0-1.034-.18-1.404-.542-.371-.366-.556-.852-.556-1.457v-.457zm.902.503c0 .34.096.62.287.843.192.217.449.326.771.326.31 0 .558-.107.745-.32.192-.213.288-.505.288-.875v-.477c0-.34-.094-.621-.281-.843-.188-.222-.442-.333-.765-.333-.322 0-.577.11-.764.333-.188.222-.281.512-.281.869v.477zm3.731 4.848c0-.57.18-1.04.542-1.405.366-.37.834-.555 1.405-.555.57 0 1.038.183 1.404.548.366.366.549.852.549 1.457v.464c0 .571-.183 1.041-.549 1.412-.361.365-.825.548-1.391.548-.567 0-1.035-.18-1.405-.542-.37-.366-.555-.851-.555-1.457v-.47zm.901.51c0 .343.096.627.288.849.191.217.448.326.771.326.313 0 .564-.106.751-.32.187-.217.281-.511.281-.882v-.483c0-.344-.096-.625-.288-.843-.187-.218-.439-.327-.757-.327a.972.972 0 00-.758.327c-.192.213-.288.503-.288.869v.483zm-3.299 1.104l-.686-.432 4.645-7.435.686.431-4.645 7.436zm-16.714-13.449v-4.484h1.266c.39 0 .735.086 1.035.258.3.173.531.418.693.736.164.319.247.684.249 1.097v.287c0 .422-.082.793-.246 1.111a1.709 1.709 0 01-.699.733 2.16 2.16 0 01-1.057.262h-1.241zm.591-3.998v3.515h.623c.455 0 .81-.142 1.062-.425.255-.284.382-.687.382-1.21v-.263c0-.509-.12-.904-.36-1.186-.238-.283-.577-.427-1.017-.43h-.69zm5.957 2.828h-1.879l-.422 1.17h-.609l1.712-4.484h.518l1.715 4.484h-.607l-.428-1.17zm-1.7-.487h1.525l-.764-2.097-.761 2.097zm6.037-2.34h-1.441v3.997h-.589v-3.998h-1.438v-.486h3.468v.486zm2.895 2.827h-1.879l-.421 1.17h-.61l1.712-4.484h.518l1.715 4.484h-.607l-.428-1.17zm-1.7-.487h1.525l-.764-2.097-.761 2.097zm7.568-.256c0 .668-.114 1.164-.342 1.488-.228.325-.584.487-1.069.487-.478 0-.832-.158-1.062-.474-.23-.319-.349-.793-.358-1.424v-.76c0-.66.114-1.15.342-1.47.228-.32.585-.48 1.072-.48.483 0 .838.155 1.066.465.228.308.345.784.351 1.43v.738zm-.57-.779c0-.482-.068-.833-.203-1.053-.136-.222-.35-.333-.644-.333-.291 0-.504.11-.637.33-.134.22-.203.557-.207 1.013v.912c0 .485.07.843.21 1.075.141.23.355.345.64.345.282 0 .49-.109.626-.327.137-.217.209-.56.215-1.029v-.933zm3.173 2.692h-.573v-3.797l-1.149.421v-.517l1.632-.613h.09v4.506zM243.69 36h-1.215v-8.057l-2.437.895v-1.097l3.463-1.3h.189v9.558zm4.097-4.77l.483-4.744h4.875v1.117h-3.849l-.287 2.594a3.068 3.068 0 011.587-.411c.867 0 1.555.287 2.065.862.51.57.765 1.344.765 2.32 0 .98-.266 1.753-.798 2.32-.527.561-1.265.842-2.214.842-.841 0-1.527-.233-2.059-.7-.531-.465-.834-1.11-.908-1.933h1.144c.074.544.267.956.581 1.235.314.274.728.411 1.242.411.561 0 1.001-.191 1.319-.575.323-.383.484-.912.484-1.587 0-.636-.174-1.146-.523-1.53-.344-.387-.804-.58-1.379-.58-.527 0-.94.115-1.241.346l-.32.26-.967-.247zm6.854-2.914c0-.571.181-1.041.542-1.412.366-.37.834-.555 1.405-.555.579 0 1.047.187 1.405.562.361.37.542.851.542 1.444v.464c0 .575-.183 1.045-.549 1.411-.361.361-.823.542-1.385.542-.566 0-1.035-.18-1.405-.542-.37-.366-.555-.852-.555-1.457v-.457zm.901.503c0 .34.096.62.288.843.192.217.449.326.771.326a.944.944 0 00.745-.32c.191-.213.287-.505.287-.875v-.477c0-.34-.093-.621-.281-.843-.187-.222-.442-.333-.764-.333s-.577.11-.765.333c-.187.222-.281.512-.281.869v.477zm3.731 4.848c0-.57.181-1.04.543-1.405.365-.37.834-.555 1.404-.555.571 0 1.039.183 1.405.548.366.366.549.852.549 1.457v.464c0 .571-.183 1.041-.549 1.412-.362.365-.825.548-1.392.548-.566 0-1.034-.18-1.404-.542-.371-.366-.556-.851-.556-1.457v-.47zm.902.51c0 .343.096.627.287.849.192.217.449.326.771.326.314 0 .564-.106.752-.32.187-.217.281-.511.281-.882v-.483c0-.344-.096-.625-.288-.843-.187-.218-.44-.327-.758-.327a.974.974 0 00-.758.327c-.191.213-.287.503-.287.869v.483zm-3.3 1.104l-.686-.432 4.646-7.435.686.431-4.646 7.436zm-16.714-13.449v-4.484h1.266c.39 0 .735.086 1.035.258.3.173.531.418.693.736.165.319.248.684.25 1.097v.287c0 .422-.082.793-.247 1.111a1.709 1.709 0 01-.699.733c-.302.17-.654.258-1.056.262h-1.242zm.592-3.998v3.515h.622c.456 0 .81-.142 1.063-.425.254-.284.382-.687.382-1.21v-.263c0-.509-.121-.904-.361-1.186-.238-.283-.577-.427-1.016-.43h-.69zm5.957 2.828h-1.879l-.422 1.17h-.61l1.713-4.484h.517l1.716 4.484h-.607l-.428-1.17zm-1.701-.487h1.525l-.764-2.097-.761 2.097zm6.037-2.34h-1.441v3.997h-.588v-3.998h-1.439v-.486h3.468v.486zm2.896 2.827h-1.879l-.422 1.17h-.61l1.713-4.484h.517l1.716 4.484h-.607l-.428-1.17zm-1.7-.487h1.524l-.764-2.097-.76 2.097zm7.567-.256c0 .668-.114 1.164-.342 1.488-.227.325-.584.487-1.068.487-.479 0-.833-.158-1.063-.474-.23-.319-.349-.793-.357-1.424v-.76c0-.66.114-1.15.342-1.47.228-.32.585-.48 1.072-.48.482 0 .837.155 1.065.465.228.308.345.784.351 1.43v.738zm-.569-.779c0-.482-.068-.833-.204-1.053-.135-.222-.35-.333-.643-.333-.292 0-.505.11-.638.33-.134.22-.202.557-.206 1.013v.912c0 .485.069.843.209 1.075.142.23.355.345.641.345.281 0 .489-.109.625-.327.138-.217.209-.56.216-1.029v-.933zm3.172 2.692h-.573v-3.797l-1.149.421v-.517l1.633-.613h.089v4.506z" fill="#F5F7F6"/><defs><linearGradient id="paint0_linear_479_2896" x1="-4.609" y1="3.066" x2="266.194" y2="3.066" gradientUnits="userSpaceOnUse"><stop offset=".01" stop-color="#F408AB"/><stop offset="1" stop-color="#27B7FF"/></linearGradient><linearGradient id="paint1_linear_479_2896" x1="-4.609" y1="7.883" x2="266.195" y2="7.883" gradientUnits="userSpaceOnUse"><stop offset=".01" stop-color="#F408AB"/><stop offset="1" stop-color="#27B7FF"/></linearGradient><linearGradient id="paint2_linear_479_2896" x1="-4.609" y1="4.671" x2="266.195" y2="4.671" gradientUnits="userSpaceOnUse"><stop offset=".01" stop-color="#F408AB"/><stop offset="1" stop-color="#27B7FF"/></linearGradient><linearGradient id="paint3_linear_479_2896" x1="-4.609" y1="12.468" x2="266.188" y2="12.468" gradientUnits="userSpaceOnUse"><stop offset=".01" stop-color="#F408AB"/><stop offset="1" stop-color="#27B7FF"/></linearGradient><linearGradient id="paint4_linear_479_2896" x1="-4.609" y1="24.448" x2="266.193" y2="24.448" gradientUnits="userSpaceOnUse"><stop offset=".01" stop-color="#F408AB"/><stop offset="1" stop-color="#27B7FF"/></linearGradient><linearGradient id="paint5_linear_479_2896" x1="-4.609" y1="18.117" x2="266.191" y2="18.117" gradientUnits="userSpaceOnUse"><stop offset=".01" stop-color="#F408AB"/><stop offset="1" stop-color="#27B7FF"/></linearGradient><linearGradient id="paint6_linear_479_2896" x1="50.001" y1="18.117" x2="77.421" y2="18.117" gradientUnits="userSpaceOnUse"><stop offset=".01" stop-color="#F408AB"/><stop offset="1" stop-color="#27B7FF"/></linearGradient><linearGradient id="paint7_linear_479_2896" x1="50.001" y1="12.468" x2="77.421" y2="12.468" gradientUnits="userSpaceOnUse"><stop offset=".01" stop-color="#F408AB"/><stop offset="1" stop-color="#27B7FF"/></linearGradient><linearGradient id="paint8_linear_479_2896" x1="-4.609" y1="31.762" x2="266.193" y2="31.762" gradientUnits="userSpaceOnUse"><stop offset=".01" stop-color="#F408AB"/><stop offset="1" stop-color="#27B7FF"/></linearGradient><linearGradient id="paint9_linear_479_2896" x1="-4.609" y1="38.094" x2="266.19" y2="38.094" gradientUnits="userSpaceOnUse"><stop offset=".01" stop-color="#F408AB"/><stop offset="1" stop-color="#27B7FF"/></linearGradient><linearGradient id="paint10_linear_479_2896" x1="-4.609" y1="48.328" x2="266.193" y2="48.328" gradientUnits="userSpaceOnUse"><stop offset=".01" stop-color="#F408AB"/><stop offset="1" stop-color="#27B7FF"/></linearGradient><linearGradient id="paint11_linear_479_2896" x1="-4.609" y1="38.094" x2="266.192" y2="38.094" gradientUnits="userSpaceOnUse"><stop offset=".01" stop-color="#F408AB"/><stop offset="1" stop-color="#27B7FF"/></linearGradient><linearGradient id="paint12_linear_479_2896" x1="-4.609" y1="51.54" x2="266.193" y2="51.54" gradientUnits="userSpaceOnUse"><stop offset=".01" stop-color="#F408AB"/><stop offset="1" stop-color="#27B7FF"/></linearGradient><linearGradient id="paint13_linear_479_2896" x1="50.001" y1="24.448" x2="77.421" y2="24.448" gradientUnits="userSpaceOnUse"><stop offset=".01" stop-color="#F408AB"/><stop offset="1" stop-color="#27B7FF"/></linearGradient><linearGradient id="paint14_linear_479_2896" x1="-4.609" y1="31.762" x2="266.194" y2="31.762" gradientUnits="userSpaceOnUse"><stop offset=".01" stop-color="#F408AB"/><stop offset="1" stop-color="#27B7FF"/></linearGradient><linearGradient id="paint15_linear_479_2896" x1="-4.609" y1="43.743" x2="266.193" y2="43.743" gradientUnits="userSpaceOnUse"><stop offset=".01" stop-color="#F408AB"/><stop offset="1" stop-color="#27B7FF"/></linearGradient><linearGradient id="paint16_linear_479_2896" x1="-4.609" y1="48.328" x2="266.195" y2="48.328" gradientUnits="userSpaceOnUse"><stop offset=".01" stop-color="#F408AB"/><stop offset="1" stop-color="#27B7FF"/></linearGradient><linearGradient id="paint17_linear_479_2896" x1="-4.609" y1="43.743" x2="266.188" y2="43.743" gradientUnits="userSpaceOnUse"><stop offset=".01" stop-color="#F408AB"/><stop offset="1" stop-color="#27B7FF"/></linearGradient><linearGradient id="paint18_linear_479_2896" x1="-4.609" y1="53.145" x2="266.194" y2="53.145" gradientUnits="userSpaceOnUse"><stop offset=".01" stop-color="#F408AB"/><stop offset="1" stop-color="#27B7FF"/></linearGradient><linearGradient id="paint19_linear_479_2896" x1="-4.609" y1="51.54" x2="266.195" y2="51.54" gradientUnits="userSpaceOnUse"><stop offset=".01" stop-color="#F408AB"/><stop offset="1" stop-color="#27B7FF"/></linearGradient><linearGradient id="paint20_linear_479_2896" x1="-4.609" y1="53.145" x2="266.194" y2="53.145" gradientUnits="userSpaceOnUse"><stop offset=".01" stop-color="#F408AB"/><stop offset="1" stop-color="#27B7FF"/></linearGradient><linearGradient id="paint21_linear_479_2896" x1="-4.61" y1="3.066" x2="266.193" y2="3.066" gradientUnits="userSpaceOnUse"><stop offset=".01" stop-color="#F408AB"/><stop offset="1" stop-color="#27B7FF"/></linearGradient><linearGradient id="paint22_linear_479_2896" x1="-4.61" y1="7.883" x2="266.193" y2="7.883" gradientUnits="userSpaceOnUse"><stop offset=".01" stop-color="#F408AB"/><stop offset="1" stop-color="#27B7FF"/></linearGradient><linearGradient id="paint23_linear_479_2896" x1="-4.61" y1="4.671" x2="266.192" y2="4.671" gradientUnits="userSpaceOnUse"><stop offset=".01" stop-color="#F408AB"/><stop offset="1" stop-color="#27B7FF"/></linearGradient><linearGradient id="paint24_linear_479_2896" x1="-4.609" y1="12.468" x2="266.189" y2="12.468" gradientUnits="userSpaceOnUse"><stop offset=".01" stop-color="#F408AB"/><stop offset="1" stop-color="#27B7FF"/></linearGradient><linearGradient id="paint25_linear_479_2896" x1="-4.609" y1="24.448" x2="266.19" y2="24.448" gradientUnits="userSpaceOnUse"><stop offset=".01" stop-color="#F408AB"/><stop offset="1" stop-color="#27B7FF"/></linearGradient><linearGradient id="paint26_linear_479_2896" x1="-4.61" y1="18.117" x2="266.194" y2="18.117" gradientUnits="userSpaceOnUse"><stop offset=".01" stop-color="#F408AB"/><stop offset="1" stop-color="#27B7FF"/></linearGradient><linearGradient id="paint27_linear_479_2896" x1="-4.608" y1="31.762" x2="266.189" y2="31.762" gradientUnits="userSpaceOnUse"><stop offset=".01" stop-color="#F408AB"/><stop offset="1" stop-color="#27B7FF"/></linearGradient><linearGradient id="paint28_linear_479_2896" x1="-4.61" y1="38.094" x2="266.194" y2="38.094" gradientUnits="userSpaceOnUse"><stop offset=".01" stop-color="#F408AB"/><stop offset="1" stop-color="#27B7FF"/></linearGradient><linearGradient id="paint29_linear_479_2896" x1="-4.608" y1="48.328" x2="266.19" y2="48.328" gradientUnits="userSpaceOnUse"><stop offset=".01" stop-color="#F408AB"/><stop offset="1" stop-color="#27B7FF"/></linearGradient><linearGradient id="paint30_linear_479_2896" x1="-4.609" y1="38.094" x2="266.19" y2="38.094" gradientUnits="userSpaceOnUse"><stop offset=".01" stop-color="#F408AB"/><stop offset="1" stop-color="#27B7FF"/></linearGradient><linearGradient id="paint31_linear_479_2896" x1="-4.611" y1="51.54" x2="266.193" y2="51.54" gradientUnits="userSpaceOnUse"><stop offset=".01" stop-color="#F408AB"/><stop offset="1" stop-color="#27B7FF"/></linearGradient><linearGradient id="paint32_linear_479_2896" x1="-4.609" y1="31.762" x2="266.192" y2="31.762" gradientUnits="userSpaceOnUse"><stop offset=".01" stop-color="#F408AB"/><stop offset="1" stop-color="#27B7FF"/></linearGradient><linearGradient id="paint33_linear_479_2896" x1="-4.61" y1="43.743" x2="266.192" y2="43.743" gradientUnits="userSpaceOnUse"><stop offset=".01" stop-color="#F408AB"/><stop offset="1" stop-color="#27B7FF"/></linearGradient><linearGradient id="paint34_linear_479_2896" x1="-4.61" y1="48.328" x2="266.193" y2="48.328" gradientUnits="userSpaceOnUse"><stop offset=".01" stop-color="#F408AB"/><stop offset="1" stop-color="#27B7FF"/></linearGradient><linearGradient id="paint35_linear_479_2896" x1="-4.608" y1="43.743" x2="266.189" y2="43.743" gradientUnits="userSpaceOnUse"><stop offset=".01" stop-color="#F408AB"/><stop offset="1" stop-color="#27B7FF"/></linearGradient><linearGradient id="paint36_linear_479_2896" x1="-4.61" y1="53.145" x2="266.193" y2="53.145" gradientUnits="userSpaceOnUse"><stop offset=".01" stop-color="#F408AB"/><stop offset="1" stop-color="#27B7FF"/></linearGradient><linearGradient id="paint37_linear_479_2896" x1="-4.61" y1="51.54" x2="266.192" y2="51.54" gradientUnits="userSpaceOnUse"><stop offset=".01" stop-color="#F408AB"/><stop offset="1" stop-color="#27B7FF"/></linearGradient><linearGradient id="paint38_linear_479_2896" x1="-4.61" y1="53.145" x2="266.193" y2="53.145" gradientUnits="userSpaceOnUse"><stop offset=".01" stop-color="#F408AB"/><stop offset="1" stop-color="#27B7FF"/></linearGradient><linearGradient id="paint39_linear_479_2896" x1="-4.607" y1="3.066" x2="266.191" y2="3.066" gradientUnits="userSpaceOnUse"><stop offset=".01" stop-color="#F408AB"/><stop offset="1" stop-color="#27B7FF"/></linearGradient><linearGradient id="paint40_linear_479_2896" x1="-4.607" y1="7.883" x2="266.191" y2="7.883" gradientUnits="userSpaceOnUse"><stop offset=".01" stop-color="#F408AB"/><stop offset="1" stop-color="#27B7FF"/></linearGradient><linearGradient id="paint41_linear_479_2896" x1="-4.607" y1="4.671" x2="266.19" y2="4.671" gradientUnits="userSpaceOnUse"><stop offset=".01" stop-color="#F408AB"/><stop offset="1" stop-color="#27B7FF"/></linearGradient><linearGradient id="paint42_linear_479_2896" x1="-4.61" y1="12.468" x2="266.192" y2="12.468" gradientUnits="userSpaceOnUse"><stop offset=".01" stop-color="#F408AB"/><stop offset="1" stop-color="#27B7FF"/></linearGradient><linearGradient id="paint43_linear_479_2896" x1="-4.61" y1="24.448" x2="266.192" y2="24.448" gradientUnits="userSpaceOnUse"><stop offset=".01" stop-color="#F408AB"/><stop offset="1" stop-color="#27B7FF"/></linearGradient><linearGradient id="paint44_linear_479_2896" x1="-4.608" y1="18.117" x2="266.191" y2="18.117" gradientUnits="userSpaceOnUse"><stop offset=".01" stop-color="#F408AB"/><stop offset="1" stop-color="#27B7FF"/></linearGradient><linearGradient id="paint45_linear_479_2896" x1="-4.61" y1="31.762" x2="266.192" y2="31.762" gradientUnits="userSpaceOnUse"><stop offset=".01" stop-color="#F408AB"/><stop offset="1" stop-color="#27B7FF"/></linearGradient><linearGradient id="paint46_linear_479_2896" x1="-4.608" y1="38.094" x2="266.191" y2="38.094" gradientUnits="userSpaceOnUse"><stop offset=".01" stop-color="#F408AB"/><stop offset="1" stop-color="#27B7FF"/></linearGradient><linearGradient id="paint47_linear_479_2896" x1="-4.608" y1="48.328" x2="266.191" y2="48.328" gradientUnits="userSpaceOnUse"><stop offset=".01" stop-color="#F408AB"/><stop offset="1" stop-color="#27B7FF"/></linearGradient><linearGradient id="paint48_linear_479_2896" x1="-4.609" y1="43.743" x2="266.192" y2="43.743" gradientUnits="userSpaceOnUse"><stop offset=".01" stop-color="#F408AB"/><stop offset="1" stop-color="#27B7FF"/></linearGradient><linearGradient id="paint49_linear_479_2896" x1="-4.607" y1="53.145" x2="266.191" y2="53.145" gradientUnits="userSpaceOnUse"><stop offset=".01" stop-color="#F408AB"/><stop offset="1" stop-color="#27B7FF"/></linearGradient><linearGradient id="paint50_linear_479_2896" x1="-4.607" y1="51.54" x2="266.19" y2="51.54" gradientUnits="userSpaceOnUse"><stop offset=".01" stop-color="#F408AB"/><stop offset="1" stop-color="#27B7FF"/></linearGradient><linearGradient id="paint51_linear_479_2896" x1="-4.613" y1="3.066" x2="266.192" y2="3.066" gradientUnits="userSpaceOnUse"><stop offset=".01" stop-color="#F408AB"/><stop offset="1" stop-color="#27B7FF"/></linearGradient><linearGradient id="paint52_linear_479_2896" x1="-4.611" y1="7.883" x2="266.192" y2="7.883" gradientUnits="userSpaceOnUse"><stop offset=".01" stop-color="#F408AB"/><stop offset="1" stop-color="#27B7FF"/></linearGradient><linearGradient id="paint53_linear_479_2896" x1="-4.61" y1="4.671" x2="266.192" y2="4.671" gradientUnits="userSpaceOnUse"><stop offset=".01" stop-color="#F408AB"/><stop offset="1" stop-color="#27B7FF"/></linearGradient><linearGradient id="paint54_linear_479_2896" x1="-4.607" y1="12.468" x2="266.191" y2="12.468" gradientUnits="userSpaceOnUse"><stop offset=".01" stop-color="#F408AB"/><stop offset="1" stop-color="#27B7FF"/></linearGradient><linearGradient id="paint55_linear_479_2896" x1="-4.605" y1="24.448" x2="266.191" y2="24.448" gradientUnits="userSpaceOnUse"><stop offset=".01" stop-color="#F408AB"/><stop offset="1" stop-color="#27B7FF"/></linearGradient><linearGradient id="paint56_linear_479_2896" x1="-4.608" y1="18.117" x2="266.191" y2="18.117" gradientUnits="userSpaceOnUse"><stop offset=".01" stop-color="#F408AB"/><stop offset="1" stop-color="#27B7FF"/></linearGradient></defs></svg>