<svg width="234" height="46" fill="none" xmlns="http://www.w3.org/2000/svg"><path d="M38.71 6.641L22.675 22.676V0A22.599 22.599 0 006.642 6.641 22.599 22.599 0 000 22.676a22.599 22.599 0 006.64 16.035 22.599 22.599 0 0016.035 6.64 22.599 22.599 0 0016.035-6.64 22.599 22.599 0 006.641-16.035 22.599 22.599 0 00-6.64-16.035z" fill="url(#paint0_linear_479_3018)"/><path opacity=".43" d="M22.675 22.675L38.71 6.642A22.599 22.599 0 0022.675 0v22.675z" fill="#406EB2"/><path d="M84.94 22.675V0a22.599 22.599 0 00-16.034 6.64 22.599 22.599 0 00-6.64 16.035 22.599 22.599 0 006.64 16.035 22.599 22.599 0 0016.035 6.641 22.598 22.598 0 0016.034-6.64 22.597 22.597 0 006.641-16.035H84.941z" fill="url(#paint1_linear_479_3018)"/><path opacity=".43" d="M84.94 0v22.675h22.676a22.597 22.597 0 00-6.641-16.034A22.598 22.598 0 0084.941 0zm141.664 6.64A22.6 22.6 0 00210.569 0v45.351a22.6 22.6 0 0016.035-6.64 22.601 22.601 0 006.641-16.035c0-6.263-2.545-11.93-6.641-16.035z" fill="#406EB2"/><path d="M194.534 6.64a22.6 22.6 0 00-6.64 16.035 22.6 22.6 0 006.64 16.035 22.601 22.601 0 0016.035 6.641V0c-6.262 0-11.929 2.545-16.035 6.64z" fill="url(#paint2_linear_479_3018)"/><path opacity=".43" d="M162.484 6.64A22.6 22.6 0 00146.449 0v22.675L130.415 38.71a22.597 22.597 0 0016.034 6.641 22.6 22.6 0 0016.035-6.64 22.597 22.597 0 006.641-16.035 22.597 22.597 0 00-6.641-16.035z" fill="#406EB2"/><path d="M130.415 6.64a22.597 22.597 0 00-6.641 16.035 22.597 22.597 0 006.641 16.035l16.034-16.035V0c-6.262 0-11.929 2.545-16.034 6.64z" fill="url(#paint3_linear_479_3018)"/><defs><linearGradient id="paint0_linear_479_3018" x1="59.078" y1="59.081" x2="-3.569" y2="-3.566" gradientUnits="userSpaceOnUse"><stop stop-color="#00EAD1"/><stop offset=".129" stop-color="#00E0D1"/><stop offset=".352" stop-color="#00C4CF"/><stop offset=".641" stop-color="#0097CE"/><stop offset=".982" stop-color="#0058CB"/><stop offset="1" stop-color="#0055CB"/></linearGradient><linearGradient id="paint1_linear_479_3018" x1="121.209" y1="63.642" x2="61.343" y2="3.776" gradientUnits="userSpaceOnUse"><stop stop-color="#00EAD1"/><stop offset=".129" stop-color="#00E0D1"/><stop offset=".352" stop-color="#00C4CF"/><stop offset=".641" stop-color="#0097CE"/><stop offset=".982" stop-color="#0058CB"/><stop offset="1" stop-color="#0055CB"/></linearGradient><linearGradient id="paint2_linear_479_3018" x1="203.242" y1="20.051" x2="104.809" y2="-78.382" gradientUnits="userSpaceOnUse"><stop stop-color="#00EAD1"/><stop offset=".129" stop-color="#00E0D1"/><stop offset=".352" stop-color="#00C4CF"/><stop offset=".641" stop-color="#0097CE"/><stop offset=".982" stop-color="#0058CB"/><stop offset="1" stop-color="#0055CB"/></linearGradient><linearGradient id="paint3_linear_479_3018" x1="166.411" y1="47.336" x2="67.978" y2="-51.097" gradientUnits="userSpaceOnUse"><stop stop-color="#00EAD1"/><stop offset=".129" stop-color="#00E0D1"/><stop offset=".352" stop-color="#00C4CF"/><stop offset=".641" stop-color="#0097CE"/><stop offset=".982" stop-color="#0058CB"/><stop offset="1" stop-color="#0055CB"/></linearGradient></defs></svg>